<svg id="svg" viewBox="0 0 900 900" xmlns="http://www.w3.org/2000/svg" xmlns:xlink="http://www.w3.org/1999/xlink" version="1.1" width="1350" height="1350" preserveAspectRatio="xMidYMid meet" buffered-rendering="static" style="background: rgb(255, 255, 255);"><g><path d="M 570 20.096953347223703 C 567.525 20.199255574373613 561.9 20.68063045572087 557.5 21.166675305773165 C 553.1 21.65272015582546 544.1 22.992653443440418 537.5 24.1443048338064 C 530.9 25.295956224172386 521.675 27.130296414806526 517 28.22061636854894 C 512.325 29.31093632229135 507.15 30.79011764944995 505.5 31.50768598445694 C 503.85 32.22525431946393 501.15 33.118978921483446 499.5 33.49374065561142 C 497.85 33.86850238973938 490.425 36.80866796270586 483 40.02744192887026 C 475.575 43.24621589503465 466.35 47.6087700566591 462.5 49.722006732480146 C 458.65 51.835243408301196 450.1 57.11786765042643 443.5 61.46117171498067 C 436.9 65.80447577953491 427 72.9683211277916 421.5 77.38082804443997 C 416 81.79333496108835 407.225 89.20405784299389 402 93.84910111534117 C 396.775 98.49414438768846 391.15 103.55009776166749 389.5 105.08455305751679 C 387.85 106.61900835336607 384.41513464476975 110.26521562736313 381.86696587726607 113.18723588862139 C 379.3187971097624 116.10925614987963 373.8894207325009 122.325 369.8016850389072 127 C 365.71394934531344 131.675 360.3783180235598 138.2 357.94472654612133 141.5 C 355.51113506868285 144.8 351.76473433498813 150.2 349.6193915823553 153.5 C 347.47404882972245 156.8 343.8016550798318 162.65 341.45851658259824 166.5 C 339.11537808536474 170.35 335.411740691039 177.55 333.2282112618743 182.5 C 331.04468183270967 187.45 327.88461073625905 196 326.20583104753956 201.5 C 324.5270513588201 207 322.55646586410205 213.525 321.82675217038843 216 C 320.8958963716788 219.15722196479766 319.9032097621323 220.59274619460766 318.5 220.81081672829978 C 317.4 220.98176592886466 312.45 219.7213773254945 307.5 218.00995316525496 C 302.55 216.2985290050154 296.31105236591605 213.6836614772805 293.63567192425796 212.19913643695517 C 290.9602914825998 210.71461139662983 286.4602914825998 207.10194352830104 283.63567192425796 204.1709856184467 C 280.74519468475876 201.17169068566747 277.95352947046865 199.0951026734484 277.25 199.4209856184467 C 276.42103945501543 199.80496968027575 276.21188534440637 201.0947025830402 276.62905430204455 203.25 C 276.97503416816903 205.0375 278.2676262381561 209.65 279.5014811242379 213.5 C 280.7353360103197 217.35 282.88010281258653 222.975 284.2676295737197 226 C 285.6551563348529 229.025 289.53756426486586 234.5375 292.89520275152637 238.25 C 296.2528412381869 241.9625 299 245.45 299 246 C 299 246.55 298.2125 247.2038756880466 297.25 247.453057084548 C 296.2875 247.70223848104936 291 247.74194282779126 285.5 247.54128896619665 C 278.38907740944757 247.2818645885067 273.98323436004006 246.5731574078014 270.25 245.08823188164865 C 267.3625 243.9397043467419 262.8625 241.66287455888707 260.25 240.02861013086016 C 257.6375 238.39434570283322 254.9375 237.04434570283323 254.25 237.02861013086016 C 253.5625 237.01287455888706 253.00148773127088 238.0125 253.00330606949083 239.25 C 253.00549019884528 240.7364451764011 255.2961546696419 243.63667508681226 259.7533060694908 247.79623282669894 C 264.68354738548635 252.39729336643137 268.45196070710597 254.88772599273898 273.75 257.04623282669894 C 277.7375 258.6708047720145 281.7875 259.9808981790194 282.75 259.957551508932 C 283.7125 259.9342048388446 285.625 260.7605028364275 287 261.79376928133854 L 289.5 263.672435544813 L 286.5600932621892 265.5862177724065 C 284.94314455639324 266.6387979975829 280.3306445563932 270.7625 276.3100932621892 274.75 C 272.28954196798514 278.7375 266.6058480879635 285.7125 263.67966241769676 290.25 C 260.75347674743 294.7875 256.7454966275121 301.65 254.77303992899044 305.5 C 252.80058323046876 309.35 250.0197351425052 316.6625 248.59337751129368 321.75 C 247.16701988008217 326.8375 246 332.35 246 334 C 246 335.65 246.45 337.225 247 337.5 C 247.55 337.775 249.125 337.325 250.5 336.5 C 251.875 335.675 254.7547246652208 332.4125 256.8993881449351 329.25 C 259.0440516246494 326.0875 262.4123027892563 321.925 264.38439073295035 320 C 266.35647867664443 318.075 268.31425401142366 316.86019294901666 268.7350025880153 317.30042877559254 C 269.15575116460684 317.74066460216847 268.89368182824 319.5406646021685 268.1526262849778 321.30042877559254 C 267.41157074171565 323.06019294901665 266.1450803736522 326.75 265.33820324483685 329.5 C 264.5313261160215 332.25 263.47031529246453 335.4 262.9804014147103 336.5 C 262.49048753695604 337.6 261.37887185348654 340.3 260.5101443403336 342.5 C 259.6414168271807 344.7 257.6117504627946 351.9 255.99977464169785 358.5 C 254.38779882060103 365.1 252.57659010999785 374.1 251.97486639591295 378.5 C 251.37314268182806 382.9 250.62658709283804 395.05 250.3158539759351 405.5 C 249.9658842495162 417.26953289539574 250.1834552402952 427.924958102181 250.88758036165763 433.5 C 251.51276299070793 438.45 252.91467076008064 445.875 254.00293096026363 450 C 255.0911911604466 454.125 256.46407251890093 459.975 257.0537784234954 463 C 257.6434843280898 466.025 260.084845225382 472.55 262.4790248619224 477.5 C 265.19339787540247 483.112004300622 269.14789479869813 489.1351077661829 272.98390015329153 493.5 C 276.36740192700415 497.35 280.90518420903237 503.0875 283.06786078002085 506.25 C 285.2305373510094 509.4125 288.1755315426454 512.5625 289.61229231698974 513.25 C 291.921814767258 514.3551225178973 292.41439820640744 514.2529624242915 293.86229231698974 512.3685647682873 C 294.7630315426454 511.19627539084536 295.95 509.4781813848834 296.5 508.5505780883718 C 297.3329752580405 507.14572246060646 298.41863608077716 508.3025669570035 303 515.4767644894116 C 306.025 520.2137703064951 310.75 527.0506853175281 313.5 530.6699089583738 C 316.25 534.2891325992196 319.175 538.1313164879439 320 539.2080953777611 L 321.5 541.1658751774288 L 320 542.0676248141974 C 319.175 542.5635871144201 316.475 542.9646958542893 314 542.9589775694624 C 310.8499067454661 542.9516995369528 307.40014506260826 543.994702672729 302.5 546.4358948652359 C 298.65 548.3539176627384 292.9117902638901 552.0779870079476 289.7484228086447 554.7116045212565 C 286.5850553533993 557.3452220345655 281.7021375513494 562.65 278.89749435964495 566.5 C 276.09285116794047 570.35 272.4391515211174 576.2 270.7781618111493 579.5 C 269.1171721011811 582.8 267.1454035339295 588.425 266.3964538839234 592 C 265.602129754972 595.7915883410561 265.02882342324006 604.750180751409 265.0205584789719 613.5 C 265.01180585596876 622.7661083662099 265.61009714122935 631.9403349802741 266.5857030355977 637.5 C 267.4543253644591 642.45 269.500968614296 650.55 271.13379914634635 655.5 C 272.76662967839667 660.45 276.70099705023665 669.9 279.87683775043513 676.5 C 283.0526784506336 683.1 288.22832851315076 692.325 291.3782823338065 697 C 294.5282361544622 701.675 298.8808970965525 707.975 301.05086220511816 711 C 303.22082731368386 714.025 308.9345963164909 721.4076723322994 313.7481266558006 727.4059385162209 C 318.5616569951103 733.4042047001425 323.85 740.0837539650103 325.5 742.2493813270382 C 327.15 744.4150086890663 331.2 749.3654067955626 334.5 753.2502660081412 C 337.8 757.1351252207198 342.525 761.7230291143801 345 763.445607994053 C 347.475 765.1681868737259 353.1 767.9630019846765 357.5 769.6563082406099 C 361.9 771.3496144965433 367.975 773.2616056368679 371 773.9051774413311 C 375.30232705844753 774.8205018672472 378.07573952099085 774.794910112932 383.73617196712814 773.7876539974504 C 388.55834991234224 772.9295626287296 391.3019834394353 772.8336009747807 391.960469060077 773.5 C 392.50393787927845 774.05 394.02406275335665 778.325 395.33852433580637 783 C 396.65298591825604 787.675 398.4542888189925 795.1 399.34141967077625 799.5 C 400.22855052256 803.9 401.6036864856264 811.55 402.39727736647933 816.5 C 403.19086824733233 821.45 404.3451418135041 830.675 404.9623297357499 837 C 405.5795176579958 843.325 406.736549656899 853.9 407.5335119555349 860.5 C 408.3304742541708 867.1 409.77396409543553 878.35 410.7412671583455 885.5 C 412.1736893386906 896.0880142244736 412.4814439986628 905.3648825918831 412.3999877943598 935.5 C 412.3169614806218 966.2159870002037 411.93368164093545 975.8118446890819 410.14325247747655 992 C 408.9570547662929 1002.725 407.53654579624293 1014.425 406.9865658773655 1018 C 406.4365859584881 1021.575 405.42711685108554 1025.0825364079815 404.7433011942487 1025.7945253510698 C 404.05948553741194 1026.506514294158 402.6 1027.07672624186 401.5 1027.0616630126294 C 400.4 1027.046599783399 396.35 1027.877000630214 392.5 1028.9069982277745 C 388.65 1029.9369958253349 381.225 1032.8037455646825 376 1035.2775532041023 C 370.775 1037.7513608435224 364.38555939851716 1041.5134235887258 361.8012431078159 1043.6376926378875 C 359.2169268171146 1045.7619616870495 355.82187088710066 1049.3 354.25667437445145 1051.5 C 352.6914778618023 1053.7 350.4137253294755 1057.975 349.1950020803919 1061 C 347.9762788313082 1064.025 346.1500017469663 1070.55 345.1366085596322 1075.5 C 344.12321537229803 1080.45 342.8217046902063 1085.4 342.2443625994283 1086.5 C 341.6670205086503 1087.6 339.6883535230061 1089.8417498205806 337.8473248535523 1091.4816662679573 C 336.0062961840986 1093.1215827153337 330 1098.0972817902252 324.5 1102.5387753232717 C 319 1106.9802688563184 308.2 1114.8875384600672 300.5 1120.1104855538247 C 292.8 1125.3334326475824 281.775 1132.4680146344215 276 1135.965112191245 C 270.225 1139.4622097480685 263.25 1143.7888529800887 260.5 1145.5798749290675 C 257.75 1147.3708968780466 254.11712699792054 1149.4356158163157 252.42694888426783 1150.1681392363328 C 250.73677077061512 1150.9006626563498 246.75792423415118 1153.075 243.5850676921257 1155 C 240.41221115010023 1156.925 235.27008415217972 1160.1145150971981 232.15811880785787 1162.087811327107 C 229.04615346353603 1164.0611075570157 219.075 1170.3384135186402 210 1176.0373801307167 C 200.925 1181.736346742793 191.7 1187.6860917451916 189.5 1189.259035691602 C 187.3 1190.8319796380124 180.775 1195.057114703962 175 1198.648224727046 C 169.225 1202.2393347501297 162.925 1206.1987081193847 161 1207.4468322142793 C 159.075 1208.694956309174 152.55 1212.810830100437 146.5 1216.593218417086 C 138.7908540377707 1221.4128851309506 132.6410526070546 1226.3168337335983 125.9436900082924 1232.9851440418606 C 120.68771951285323 1238.2183148188371 113.80667749551705 1246.1 110.6524855253231 1250.5 C 107.49829355512915 1254.9 102.54319655431827 1262.1 99.64115885685447 1266.5 C 96.73912115939068 1270.9 91.69213232984748 1279.45 88.42562812453627 1285.5 C 85.15912391922507 1291.55 81.07344651591004 1299.65 79.34634500605841 1303.5 C 77.61924349620679 1307.35 74.61631176434167 1314.1 72.67316337969146 1318.5 C 70.73001499504124 1322.9 67.53362889543558 1331.3375 65.57008315834554 1337.25 C 63.606537421255496 1343.1625 62 1348.45 62 1349 C 62 1349.6653252850435 228.33333333333348 1350 559 1350 C 889.6666666666665 1350 1056 1349.6653252850435 1056 1349 C 1056 1348.45 1052.2421904322969 1340.6875 1047.6493120717707 1331.75 C 1043.0564337112446 1322.8125 1037.8199333982807 1312.8 1036.0126447096286 1309.5 C 1034.2053560209768 1306.2 1029.1400129954773 1297.425 1024.7563268751853 1290 C 1020.3726407548935 1282.575 1015.4177440439755 1274.25 1013.7454452953676 1271.5 C 1012.0731465467597 1268.75 1007.9188243415864 1261.775 1004.5136181727602 1256 C 1001.108412003934 1250.225 995.0243367827984 1240.55 990.9934510146812 1234.5 C 986.962565246564 1228.45 979.8025400449401 1218.123549948785 975.0822838999613 1211.552333219522 C 970.3620277549826 1204.9811164902592 965.6 1198.142896152768 964.5 1196.356288025097 C 963.4 1194.5696798974259 957.6509691056463 1186.4461299486409 951.7243757903251 1178.303954805575 C 945.7977824750039 1170.1617796625087 938.8227824750039 1160.575 936.2243757903251 1157 C 933.6259691056463 1153.425 926.775 1145.8047289562892 921 1140.0660643473095 C 915.225 1134.3273997383299 908.7 1128.3370568035175 906.5 1126.754191158838 C 904.3 1125.1713255141585 898.9 1122.1595733262786 894.5 1120.061408519105 C 890.1 1117.9632437119315 884.925 1115.9344016860723 883 1115.5528706838622 C 881.075 1115.1713396816522 877.475 1114.2296668778986 875 1113.4602644532988 C 872.525 1112.6908620286988 866 1111.3619857302363 860.5 1110.507206012271 C 855 1109.6524262943055 845.55 1108.4771093509535 839.5 1107.8953905825992 C 831.0466649706811 1107.082586674874 825.3745475359823 1105.7899058661476 815 1102.311817925931 C 807.575 1099.8225717331177 798.8 1096.5556522892095 795.5 1095.051996939469 C 792.2 1093.5483415897284 786.447409564649 1091.009010544363 782.71646569922 1089.4090390608794 C 776.767692373165 1086.857977445724 775.8819579600085 1086.1308291794312 775.5187049569836 1083.5 C 775.2908804141828 1081.85 774.8292968388196 1078.475 774.4929636783988 1076 C 774.1566305179782 1073.525 772.4692921612692 1068.575 770.7433228857122 1065 C 768.9515749784066 1061.2887527261742 765.6519551792834 1056.6627794223311 763.0525984650772 1054.2178226514075 C 760.5486693092847 1051.8626251096816 756.25 1048.8670265176352 753.5 1047.5609368913038 C 750.75 1046.2548472649726 746.25 1044.4823918951463 743.5 1043.6221471805786 C 740.75 1042.761902466011 734.9628141420145 1041.7075010580577 730.6395869822545 1041.2790329406823 C 724.292180254044 1040.6499516293031 722.5693371907699 1040.1150313511214 721.6890240297005 1038.5 C 721.0894415655556 1037.4 720.3932069169692 1029.3 720.1418359217306 1020.5 L 719.6847977485695 1004.5 L 721.8423988742848 1002.25 C 723.7520608529937 1000.2585570957093 725.0054998166473 999.996262346203 732.75 999.9674744140358 C 737.5625 999.9495853417554 746.225 999.3197834363309 752 998.5679146242034 C 757.775 997.8160458120758 768.125 996.2014600157867 775 994.9799461880052 C 781.875 993.7584323602239 790.65 991.9053811292714 794.5 990.8620545636666 C 798.35 989.8187279980617 805.775 987.836503869475 811 986.4571120556961 C 816.225 985.0777202419172 822.3 983.0314846666539 824.5 981.9099218884444 C 826.7 980.788359110235 831.875 977.506034650826 836 974.6158675342025 L 843.5 969.3610182312506 L 847.6451405848736 960.9305091156252 C 849.9249679065542 956.2937291020314 852.1131399280305 950.475 852.5077450770432 948 C 852.902350226056 945.525 854.2995369628628 940.9125 855.6126044921696 937.75 C 856.9256720214763 934.5875 858.8554273021666 928.9625 859.9009495603703 925.25 C 860.9464718185741 921.5375 863.2362631799385 915.125 864.9893748078468 911 C 866.7424864357553 906.875 869.2795859554195 901.025 870.627373740434 898 C 871.9751615254484 894.975 873.4478151050323 891.825 873.8999372506203 891 C 874.3520593962083 890.175 875.97054952577 886.35 877.4965819829795 882.5 C 879.022614440189 878.65 882.0024299799286 872.125 884.1183942935118 868 C 886.2343586070949 863.875 887.9733416557025 859.9375 887.9828010681952 859.25 C 887.9922604806878 858.5625 888.8394240594137 856.7625 889.865386798697 855.25 C 890.8913495379804 853.7375 894.3060802936064 847.1 897.453677366755 840.5 C 900.6012744399035 833.9 905.1138948277658 824 907.4817226731157 818.5 C 909.8495505184655 813 913.8013025705598 802.65 916.2633938999916 795.5 C 918.7254852294234 788.35 921.4668149330128 779.125 922.3552376857457 775 C 923.2436604384786 770.875 924.6913448889502 766.825 925.5723142423493 766 C 926.9977328081875 764.6651404929363 927.7424860575004 764.6912109911533 932.3370383515374 766.2368028981273 C 935.1766672581919 767.1920444920972 939.4125 767.9795444920971 941.75 767.9868028981273 C 944.0875 767.9940613041573 947.2375 767.5063910936482 948.75 766.9030913192181 C 950.2625 766.299791544788 953.975 763.8936475467053 957 761.556104656812 C 961.414148589831 758.1451090696739 963.4871376456081 755.4555902740116 967.5 747.9332891982567 C 970.25 742.7782835859447 973.4640290771077 736.2969275840275 974.6422868380172 733.5302758606629 C 975.8205445989266 730.7636241372983 979.3323884795535 722.425 982.4463843505214 715 C 985.5603802214894 707.575 989.5987236792582 697.225 991.4204809233411 692 C 993.242238167424 686.775 996.0876526065667 678.675 997.743624121436 674 C 999.3995956363053 669.325 1001.4704436866905 663.25 1002.3455086778476 660.5 C 1003.2205736690048 657.75 1004.8279194618792 651.9 1005.9173882175685 647.5 C 1007.0068569732579 643.1 1008.4193927195197 632.75 1009.0563565425948 624.5 C 1009.9456699212941 612.9815509005685 1009.9347822841646 605.7863457060602 1009.0094479775308 593.5 C 1008.1588970131412 582.2066078559966 1007.1988695754769 575.8821035495012 1005.7458578352039 572 C 1004.6136467907843 568.975 1002.6910200416891 564.925 1001.4733539483257 563 C 1000.2556878549623 561.075 998.4135470874858 558.7412884715842 997.3797077983779 557.8139743812983 C 996.3458685092701 556.8866602910124 992.8 554.9024392256072 989.5 553.4045942359534 L 983.5 550.6812397093101 L 973.75 551.3406198546551 L 964 552 L 966.75 548.4537073174727 C 968.2625 546.5032463420827 969.8375 544.9282463420826 970.25 544.9537073174727 C 970.6625 544.9791682928627 974.9502238039055 540.3875 979.77827511979 534.75 C 984.6063264356745 529.1125 991.0476802865973 520.45 994.0923947885072 515.5 C 997.1371092904172 510.55 1001.4497818529953 502.225 1003.6761115942364 497 C 1005.9024413354775 491.775 1008.670558766854 483.45 1009.8274836639621 478.5 C 1010.9844085610702 473.55 1012.6215121945864 464.6625 1013.4654917384429 458.75 C 1014.3094712822993 452.8375 1015 444.85 1015 441 C 1015 437.15 1014.5615741306273 431.8625 1014.0257202902828 429.25 C 1013.4898664499384 426.6375 1012.2031917585797 423.375 1011.1664431983745 422 L 1009.2814458161833 419.5 L 1004.8907229080917 422.2658921117254 C 1002.4758253086412 423.78713277317433 999.7350727656285 425.58713277317435 998.8001617013966 426.2658921117254 C 997.8652506371648 426.9446514502764 996.8275488180354 427.275 996.4941576588869 427 C 996.1607664997384 426.725 997.5365072299189 422 999.5513592815101 416.5 C 1001.5662113331014 411 1004.3453499974373 402.675 1005.7272229800345 398 C 1007.1090959626317 393.325 1008.2982824668228 386.8584657632135 1008.3698596560147 383.6299239182522 C 1008.4714958638336 379.04554789551025 1008.1174557022857 377.5123649711825 1006.7534307932149 376.6299239182522 C 1005.4380071591975 375.7789249306733 1004.5123090010037 375.80856605273124 1003.0034307932149 376.75 C 1001.9015438569467 377.4375 1000.55 378 1000 378 C 999.4022146224883 378 999.5788343909147 376.2905878544249 1000.4391182183626 373.75 C 1001.2306332384621 371.4125 1003.3003874782021 365.675 1005.0385720844515 361 C 1007.5737432267714 354.1814347867693 1008.3077849412525 350.42293349869675 1008.7493045030889 342 C 1009.0520227270899 336.225 1009.00726848735 330.2625 1008.649850637 328.75 C 1008.29243278665 327.2375 1007.4375 326.0094523163854 1006.75 326.0210051475231 C 1006.0625 326.0325579786608 1004.475928611758 327.04505797866085 1003.2242858039067 328.2710051475231 L 1000.9485716078135 330.5 L 1000.9759177317953 314 C 1000.9909580999853 304.925 1000.5491043498473 293.9 999.9940205092665 289.5 C 999.4389366686858 285.1 998.1194674946851 278.8 997.0618667892651 275.5 C 996.0042660838451 272.2 994.3971773831686 267.475 993.4905585655395 265 C 992.5839397479103 262.525 989.79614059057 256.45 987.2954493270051 251.5 C 984.7947580634403 246.55 981.1177719024968 240.0680691992505 979.1243689693528 237.09570933166776 C 977.1309660362087 234.123349464085 974.375 230.01123564919718 973 227.95767863191696 C 971.625 225.90412161463678 968.6299476473177 221.5860524153863 966.3443281051505 218.36196930024923 C 964.0587085629833 215.13788618511217 958.489791719246 208.45 953.9689573412898 203.5 C 949.4481229633335 198.55 941.1562623303086 189.775 935.5426003790121 184 C 929.9289384277156 178.225 921.5478552714529 170.07864508637167 916.9179711428728 165.89698908082596 C 912.2880870142927 161.71533307528023 906.475 156.76341648117202 904 154.89272998280774 C 901.525 153.0220434844435 896.35 149.01037647729814 892.5 145.97791441137366 C 888.65 142.94545234544918 883.7 139.246033423928 881.5 137.75698347465988 C 879.3 136.26793352539178 873.1265018900283 132.00095544616545 867.7811153111738 128.27480996526805 C 862.4357287323195 124.54866448437062 852.6552921606343 118.35 846.0468118185399 114.5 C 839.4383314764457 110.65 834.0243295864175 107.1625 834.0156965073661 106.75 C 834.0070634283147 106.3375 835.9125 106.1125 838.25 106.25 C 842.0032467532468 106.47077922077922 842.5292207792207 106.23701298701299 842.75 104.25 C 842.9380038084412 102.5579657240298 841.6980799772638 101.0327300935324 837.75 98.09947852381715 C 834.8625 95.9541917119166 830.475 93.01560379199974 828 91.56928314622417 C 825.525 90.12296250044858 818.1 86.32990978264962 811.5 83.14027710667094 C 804.9 79.95064443069225 795.45 75.52247953151638 790.5 73.2999106640579 C 785.55 71.07734179659941 777.9 67.80423430477416 773.5 66.0263384600018 C 769.1 64.24844261522944 759.875 61.01119400229869 753 58.83245265348903 C 746.125 56.653711304679376 736.675 53.7719603132177 732 52.428561561351955 C 727.325 51.08516280948622 720.575 49.328095136624555 717 48.523966732770475 C 713.425 47.719838328916396 706.675 46.19554014860431 702 45.136637443188064 C 697.325 44.07773473777182 689.9 42.68250085729179 685.5 42.03611770878801 C 681.1 41.38973456028423 674.8 40.24077779034045 671.5 39.48288044224629 C 668.2 38.72498309415213 662.35 37.36834824644005 658.5 36.46813633621946 C 654.65 35.56792442599887 643.175 34.13915778212384 633 33.29309934983051 C 622.825 32.44704091753718 609.1 31.53263362400968 602.5 31.261083141991616 C 595.9 30.989532659973552 586.45 31.273579498245265 581.5 31.89229833815098 C 576.55 32.51101717805669 570.925 33.125862304661425 569 33.25862084171705 C 567.075 33.39137937877267 565.275 33.05 565 32.5 C 564.725 31.95 567.0820592479032 30.15 570.2379094397847 28.5 C 573.3937596316664 26.85 576.2080765008305 24.825 576.4919469268162 24 C 576.7758173528019 23.175 576.4437581048987 21.917463592018553 575.7540374870314 21.20547464893012 C 575.0289474603006 20.456974359969163 572.6019199218777 19.989404982426215 570 20.096953347223703 Z " class="odd" fill="#000000"></path><path d="M 653 274.9626207145353 C 653.825 274.951630489669 656.525 276.38733761560405 659 278.15308099439096 C 661.475 279.9188243731778 667.325 283.2591435554689 672 285.5760125105933 C 676.675 287.8928814657177 685.675 291.16515889625185 692 292.8477401340025 C 698.325 294.53032137175313 708.45 296.4634050002716 714.5 297.14348153071023 C 723.1335718042602 298.11397567251754 729.1572072115979 298.1243237189543 742.5 297.1915829313821 L 759.5 296.0031815494381 L 768 304.8697296957793 C 772.675 309.74633117626695 779.425 315.8650659966101 783 318.4669181854307 C 786.575 321.06877037425124 792.7625 324.7281078597741 796.75 326.5987792643704 C 800.7375 328.4694506689667 807.2625 330.9085548705671 811.25 332.0190108234825 C 815.2375 333.1294667763979 822.775 334.9096272502554 828 335.97492298761034 C 833.225 337.04021872496526 842.8194882146598 338.26916385439813 849.3210849214663 338.7059121641278 L 861.1421698429326 339.5 L 865.8210849214663 345.12959931904953 C 868.3944882146599 348.22587894452676 872.525 352.1526660873333 875 353.8557929697306 C 877.475 355.55891985212793 882.2 358.04288316575645 885.5 359.37571144446065 C 888.8 360.70853972316485 895.55 362.2929849409195 900.5 362.89670081724887 C 905.45 363.5004166935782 912.2 363.9809660553816 915.5 363.9645882879231 C 919.9847032136848 363.9423308859977 921.9270507247279 364.38500387458697 923.1909587425432 365.7174052644539 C 924.120986050942 366.69783236900423 926.820986050942 371.55 929.1909587425432 376.5 L 933.5 385.5 L 933.4190515567398 417.5 C 933.350032480554 444.78416198008927 933.0779940974496 450.45790459779437 931.5730958172537 456 C 930.5156658381593 459.89420195531835 929.5880917791931 467.91204209280033 929.2593204287173 476 C 928.8705703203175 485.56346868000475 929.0831795426891 490.666379650369 929.9884457089959 493.5 C 930.6912870639198 495.7 932.5564127882283 499.4125 934.1331695407924 501.75 C 935.7099262933566 504.0875 937.0104166666666 506.5625 937.0231481481482 507.25 C 937.0398038338831 508.1494070296851 936.1282621110644 508.2899443021213 933.7731481481482 507.751069917025 C 931.9729166666667 507.33915837138875 929.4503248263089 505.76415837138876 928.1673885029088 504.251069917025 C 926.8844521795087 502.73798146266125 924.8594521795087 500.3435708026748 923.6673885029088 498.9301573392773 C 922.1123863473916 497.086412726163 919.8047256735845 496.03025201127576 915.5 495.192140317146 C 912.2 494.5496444183714 902.525 493.1086881556509 894 491.99001528887834 C 885.475 490.87134242210584 868.6 489.29755282592964 856.5 488.49270507515354 C 844.4 487.68785732437743 829.1 486.58033639312816 822.5 486.03154745015524 C 815.9 485.4827585071823 802.625 484.54996803643326 793 483.9586797373796 C 783.375 483.367391438326 774.0375 483.13479782962094 772.25 483.4418050513683 C 770.3034023025646 483.77613766728416 767.6965976974354 485.4077409349504 765.75 487.5101656868233 C 763.9625 489.44075681457616 762.1625 491.01575681457615 761.75 491.0101656868233 C 761.3375 491.0045745590705 761 488.75 761 486 C 761 483.25 760.55 479.875 760 478.5 C 759.45 477.125 758.325 476 757.5 476 C 756.675 476 755.4612131301278 477.0125 754.8026958447285 478.25 C 754.1441785593294 479.4875 753.5816785593294 484.16263982049566 753.5526958447285 488.6391996011015 C 753.5085429435778 495.4588886540937 753.8242359477044 497.1177448984486 755.5 498.87160138196253 C 756.6 500.0228625808303 758.7375 501.1977227603346 760.25 501.48240178086104 C 761.7625 501.76708080138746 763.6281436489559 503.0125 764.3958747754575 504.25 C 765.1636059019593 505.4875 766.0779826394376 507.4 766.4278230809649 508.5 C 766.9396686171624 510.10939109086166 765.7393518962912 511.52838112745684 760.2819483055073 515.7655282734096 L 753.5 521.0310565468192 L 747.25 521.0155282734096 C 743.8125 521.0069877230343 735.2625 520.4949404369925 728.25 519.8776454155388 C 721.2375 519.2603503940852 714.2625 518.1353503940852 712.75 517.3776454155388 C 711.2375 516.6199404369925 710 515.55 710 515 C 710 514.45 707.75 511.75 705 509 L 700 504 L 704.4694613584853 497.25 L 708.9389227169706 490.5 L 709.004046760323 484 C 709.0545383056216 478.96046271782774 708.6120267843492 476.88211192707286 707.0345854018377 474.75 C 705.915563430827 473.2375 704.2332143483833 472.1125 703.2960318852961 472.25 C 702.358849422209 472.3875 701.3151805895951 473.625 700.9767678128208 475 C 700.5473825882052 476.74462882126903 699.7781029456921 477.4152547113727 698.4307359275246 477.21952435102946 C 697.368831167386 477.0652627440957 690.65 476.98063100806223 683.5 477.03145382651064 C 676.35 477.082276644959 670.275 477.2864845601232 670 477.48524919354213 C 669.725 477.684013826961 658.7 478.55374300841584 645.5 479.41798070788604 C 627.6755399990341 480.5849936098205 620.0847720835548 480.7187032767673 616 479.93761656276286 C 612.975 479.35917858347483 594.975 478.63487648009374 576 478.32805633302706 C 547.6291214417136 477.86930760408563 538.5686810496153 478.0731428065037 525 479.475417264002 C 515.925 480.4132859231048 503.325 482.2550704124103 497 483.5682716846808 C 490.675 484.88147295695126 482.82362910045634 486.9783305301906 479.55250911212516 488.2279551807681 C 476.1558208423029 489.5255490958305 471.8191982583725 492.21554873552 469.44117273527564 494.5 C 466.4883758292714 497.3366056462209 464.0008906263487 498.7305794484635 460.8886636231505 499.29278173463535 C 458.4748986304177 499.7288116886848 448.4 502.80329429727334 438.5 506.1249653092766 C 428.6 509.44663632127987 417.125 513.4967890896878 413 515.1253047946275 C 408.875 516.7538204995673 404.3753695244235 517.9543378909788 403.0008211653855 517.7931212199862 C 401.08185309020683 517.5680511867736 400.1879166131364 516.5713577573566 399.1503115244464 513.5 C 398.14083060739017 510.5118910563377 397.9350750844767 505.57892215669153 398.3369610293519 494 C 398.67620277282236 484.22594895384105 399.6008650429084 475.1752554461568 400.83999856983144 469.5 C 401.92078004591866 464.55 403.7357891944031 456.45 404.87335223313016 451.5 C 406.01091527185724 446.55 408.10457299048306 438.9 409.52592494118744 434.5 C 410.9472768918919 430.1 414.8367700948388 421.775 418.16924316995835 416 C 421.5017162450779 410.225 425.8131482889135 403.025 427.7502032673708 400 C 429.68725824582816 396.975 432.73471668429573 392.25 434.5223331306322 389.5 C 436.3099495769686 386.75 438.3613282158141 383.375 439.0809523280667 382 C 439.8005764403193 380.625 443.2267538487894 376.0125 446.69467990244476 371.75 C 450.3375671981107 367.27245150054193 453.2555081013525 362.627681628805 453.60510836758135 360.75 C 454.0425186072704 358.40069637911057 453.46405480822386 355.83717591548816 451.51782635945585 351.5 C 450.0370116528171 348.2 448.24784933928237 344.15 447.54191010715647 342.5 C 446.8359708750305 340.85 445.0287631628157 336.125 443.5258929689013 332 C 441.25534477449423 325.767917322564 441.022184564613 324.30359421633574 442.14670085361934 323.3382181146457 C 442.8910153841287 322.69923807770084 446.875 321.1858649072917 451 319.9751666248476 C 455.125 318.7644683424035 465.925 314.61431801065874 475 310.7526103320814 C 484.075 306.89090265350404 499.7125 299.7417758239132 509.75 294.8656618218795 L 528 286 L 535.75 289.1039712460034 C 541.1108527586874 291.2510593514258 547.0451862290445 292.64528460400675 555 293.62660824411734 C 564.1903879803481 294.7603550855372 569.3117015891415 294.82889948450116 580.5 293.96790391688774 C 588.2 293.3753503732507 600.125 291.7940878621364 607 290.45398722552267 C 613.875 289.11388658890894 624.9 286.0199953360461 631.5 283.57867333027195 C 638.1 281.13735132449773 645.3 278.20451284831285 647.5 277.06125449430556 C 649.7 275.91799614029827 652.175 274.9736109394017 653 274.9626207145353 Z " class="even" fill="#ffffff"></path><path d="M 600 507.50957134644017 C 612.925 507.6851804776916 626.65 508.3543108356601 630.5 508.9965276974814 C 634.35 509.6387445593027 643.575 511.2687240046634 651 512.6187042427274 C 658.425 513.9686844807915 667.6072526502596 516.0692406690222 671.4050058894659 517.2866068832401 C 675.2027591286721 518.503973097458 679.4993875131615 520.625 680.953068966109 522 C 682.6240869796961 523.5805730781138 683.7962988291374 525.9710830750178 684.1404126840757 528.5 C 684.4397702760099 530.7 684.2979607837369 536.325 683.8252804790246 541 C 683.3526001743123 545.675 682.24767693471 552.65 681.3698955021306 556.5 C 680.4921140695512 560.35 678.0070328570821 569.575 675.847492807755 577 C 673.6879527584279 584.425 670.0747224059025 595.675 667.8180920243656 602 C 665.5614616428287 608.325 662.2290810443919 616.425 660.4128018056172 620 C 658.1161217284688 624.5205776185301 656.2562065630375 626.854232728158 654.3052379584681 627.663224562166 C 652.7623570813106 628.3029980713573 649.25 629.3548213820735 646.5 630.000609697091 C 643.211060768903 630.7729582513618 630.2069989252399 631.1798010650839 608.5 631.1894710780425 C 583.914628006783 631.2004233458612 572.1851465427825 630.7887408106023 562.5 629.5749583922066 C 555.35 628.6788909704909 544.775 627.22596695397 539 626.3462383554934 C 533.225 625.4665097570168 524.675 623.4425544701414 520 621.848559940215 C 515.325 620.2545654102884 509.7 617.883618046067 507.5 616.579788019723 C 505.3 615.2759579933789 502.7445384332524 613.3746206781642 501.8211965183386 612.3545939859124 C 500.8978546034248 611.3345672936606 498.54305627324726 604.2 496.58831134016623 596.5 C 494.6335664070852 588.8 492.1003546968078 577.325 490.9589519839942 571 C 489.28617312460415 561.7304177860576 488.89495497024546 555.5725252028116 488.9418371621666 539.25 C 488.9875357646112 523.339553846148 489.321448433048 518.357103133904 490.5 516 C 491.43333333333334 514.1333333333333 493.8888888888889 512.0555555555555 497 510.5 C 499.75 509.125 502.675 508 503.5 508 C 504.325 508 505.191969797002 509.0125 505.42659954889336 510.25 C 505.66122930078467 511.4875 506.67372930078466 512.7630622631998 507.67659954889336 513.0845828071108 C 508.679469797002 513.4061033510217 513.55 512.8915153639268 518.5 511.94105394690007 C 523.45 510.9905925298733 536.95 509.69160598455807 548.5 509.0544171795329 C 560.05 508.4172283745077 571.075 507.73712981540325 573 507.54308704818965 C 574.925 507.34904428097605 587.075 507.33396221518876 600 507.50957134644017 Z " class="even" fill="#ffffff"></path><path d="M 848.75 521.1247602708136 C 858.2375 521.0561421218661 871.7375 521.458610689055 878.75 522.0191348645667 C 885.7625 522.5796590400784 895.325 523.6723366715064 900 524.4473073788513 C 904.675 525.2222780861961 911.2 526.1706949926418 914.5 526.554900504286 C 919.0716363911648 527.087157443292 921.1207119123465 527.8779536925293 923.1073693358207 529.8767279900015 C 925.1152578424958 531.8968628617268 925.8567632241042 533.8795072778752 926.3324572791785 538.5 C 926.672202513324 541.8 927.2300582505885 552.375 927.572136695322 562 C 927.9695718887492 573.1825629344092 927.7665817256399 583.1099640374804 927.0098314728828 589.5 C 926.3584851558076 595 925.2633781584569 604.45 924.576260367659 610.5 C 923.8891425768611 616.55 922.6908903524478 622.5081680309715 921.9134776467405 623.740373402159 C 921.1360649410332 624.9725787733464 919.375 626.4110095741464 918 626.9368862928258 C 916.625 627.4627630115051 911.9 628.5627756238151 907.5 629.381358764626 C 903.1 630.199941905437 894.775 631.4481919492379 889 632.1552477508505 C 883.225 632.8623035524631 868.15 633.4541229091814 855.5 633.4704018768912 C 842.85 633.4866808446011 828.45 633.1187650659052 823.5 632.652811257567 C 818.55 632.1868574492289 811.5878422590177 631.511857449229 808.0285383533728 631.152811257567 L 801.5570767067458 630.5 L 799.2725019627067 626.5 C 798.0159858534851 624.3 795.2421640009426 617.1 793.1084534015012 610.5 C 790.9747428020597 603.9 788.2774591778596 594.1125 787.1144897921674 588.75 C 785.9515204064753 583.3875 784.3137536303349 574.3875 783.4750080674108 568.75 C 782.6362625044868 563.1125 781.2862625044868 555.2375 780.4750080674108 551.25 C 779.6637536303349 547.2625 778.9897921970176 541.8625 778.9773159933723 539.25 L 778.9546319867445 534.5 L 782.7273159933723 532.3736436627327 C 784.8022921970176 531.2041476772356 788.75 529.5262362578156 791.5 528.6449516195771 C 794.25 527.7636669813385 799.875 526.3113551118604 804 525.4175919096256 C 808.125 524.5238287073909 816 523.220382248677 821.5 522.5210442235948 C 827 521.8217061985125 839.2625 521.193378419761 848.75 521.1247602708136 Z " class="even" fill="#ffffff"></path><path d="M 635.25 537.9722222222222 C 634.2875 537.9569444444445 633.15 538.2944444444445 632.7222222222222 538.7222222222222 C 632.2944444444445 539.15 631.9586240464114 540.175 631.9759546710377 541 C 631.9932852956639 541.825 634.7640451544017 544.75 638.1331988015663 547.5 C 641.5023524487308 550.25 644.6506728467638 553.2875 645.1294663527508 554.25 C 645.7099804575062 555.4169849712669 645.583560693762 556.147529620399 644.75 556.4428304983137 C 644.0625 556.6863872723862 630.675 557.3709676498778 615 557.9641202260727 C 599.325 558.5572728022677 581.325 559.4624824690173 575 559.9756972632943 C 568.675 560.4889120575712 557.875 561.0418316800796 551 561.2044075355352 L 538.5 561.5 L 538.7677224894053 558.5 C 538.9149698585783 556.85 540.8274698585783 552.9125 543.0177224894053 549.75 C 545.2079751202324 546.5875 547 543.325 547 542.5 C 547 541.675 546.317415071301 540.6625 545.4831446028909 540.25 C 544.4931602602265 539.7605082142877 543.0691813935072 540.3683607142923 541.3835266581755 542 C 539.963007256992 543.375 537.2920537250432 546.75 535.4480743649558 549.5 C 533.6040950048686 552.25 530.4381157283723 557.875 528.4125648616309 562 C 525.2377680258974 568.4654199321438 524.7463904877021 570.3966360588087 524.8504127856679 576 C 524.9188847051178 579.68837347312 525.5180325629669 583.0915520802527 526.2355402337082 583.8675673084183 C 526.9309931051687 584.6197293280483 528.4 585.677053747979 529.5 586.2171771304866 C 530.961298787754 586.9347058978465 531.6742663096549 586.8357014205329 532.1469868850984 585.8496098220683 C 532.5028296719024 585.1073244199307 532.5759910757615 581.575 532.3095677825629 578 C 531.9736077751659 573.4919218510306 532.2350132309795 570.9332610389845 533.1625808974646 569.6506286279782 L 534.5 567.8012572559563 L 551 567.9354140346122 C 560.075 568.009200262873 573.125 567.5917300322877 580 567.0077024110894 C 586.875 566.4236747898912 593.2875 566.1830213569058 594.25 566.4729170044553 C 595.273352793942 566.7811409222439 596.6016551512705 568.9723281307288 597.4489789624809 571.75 C 598.3643226933146 574.7506527589725 600.2978117491872 577.8129258976799 602.6989789624809 580.0649857659569 C 605.3085830276774 582.5125390037261 608.2239560852447 584.0416376225314 612 584.9433248810947 C 615.025 585.6656692231442 619.075 586.0393632634652 621 585.773756081808 C 622.925 585.5081489001508 626.075 584.5550834427664 628 583.6558328431759 C 629.925 582.7565822435854 633.1875 580.6661446085839 635.25 579.0104158765057 C 638.1203822686832 576.7061373822966 639.168854955818 575.0030999045076 639.719865075218 571.75 C 640.1157908665879 569.4125 641.1282908665878 566.8963861624986 641.969865075218 566.1586359166636 C 642.9455134606814 565.3033520583383 645.2992288761872 564.9409745121898 648.4650672214933 565.1586359166636 L 653.4301344429866 565.5 L 654.7150672214933 562.75 C 655.6518496879128 560.7451077396846 655.7285069401659 559.1194181258272 654.9979893178137 556.75 C 654.4468834426112 554.9625 652.5343834426112 551.9111951090747 650.7479893178137 549.9693224646105 C 648.9615951930161 548.0274498201463 645.1375 544.5399498201463 642.25 542.2193224646105 C 639.3625 539.8986951090748 636.2125 537.9875 635.25 537.9722222222222 Z " class="odd" fill="#000000"></path><path d="M 801.5 545 C 800.675 545 798.5918352577477 546.2375 796.870745017217 547.75 C 795.1496547766864 549.2625 792.8936026930901 552.3 791.8572959425587 554.5 C 790.8209891920272 556.7 789.9791539342796 559.5125 789.9865509253416 560.75 C 789.9939479164037 561.9875 791.125 564.125 792.5 565.5 L 795 568 L 804.25 567.9564110390377 C 809.3375 567.9324371105084 818.225 567.5301717053936 824 567.0624879165603 C 829.775 566.594804127727 835.1313901943955 566.5019191601601 835.903089320879 566.8560768775226 C 836.6747884473625 567.2102345948852 838.9247884473625 569.9432468868478 840.903089320879 572.9294375263285 C 843.367612660524 576.6495675763886 845.7592888069745 578.9251144136807 848.5 580.1574755258375 C 850.787571140998 581.1860821599959 854.8545896811277 581.9560759990181 858 581.9560759990181 C 861.1284715194408 581.9560759990181 865.2247479858612 581.1842556601217 867.5 580.1660861681014 C 869.7 579.1815917610971 872.4704563988664 577.0539746613181 873.6565697752587 575.4380481685923 C 874.8426831516509 573.8221216758665 876.073599910733 571.375 876.3919403509967 570 C 876.7102807912604 568.625 877.5398243923939 566.9568107004478 878.235370575738 566.292912667662 C 878.9309167590822 565.6290146348761 883.55 564.6717884959913 888.5 564.1657434701403 C 893.45 563.6596984442895 898.5125 562.7403877438417 899.75 562.1228308024785 C 900.9875 561.5052738611153 902 560.1 902 559 C 902 557.644051888515 901.1144286532917 556.7885210411217 899.25 556.3432859598754 C 897.7375 555.9820932378068 885.25 556.0100787463983 871.5 556.4054759789676 C 857.75 556.8008732115369 843.575 557.2874572048275 840 557.4867737418356 C 836.425 557.6860902788436 826.3 558.0638873628354 817.5 558.3263228173728 C 808.7 558.5887582719103 800.9375 558.6226955966757 800.25 558.4017390946295 C 799.5625 558.1807825925833 799.0067582436018 557.4375 799.015018319115 556.75 C 799.0232783946283 556.0625 800.1924035490704 553.925 801.6130742178752 552 C 803.1732809403154 549.8859295073473 803.9592937069103 547.8070352463263 803.5980558987601 546.75 C 803.2691251544421 545.7875 802.325 545 801.5 545 Z " class="odd" fill="#000000"></path><path d="M 900 547 C 899.45 547 899 547.225 899 547.5 C 899 547.775 900.125 549.35 901.5 551 C 902.875 552.65 904 554.675 904 555.5 C 904 556.325 904.9 557.45 906 558 C 907.1 558.55 908.45 558.775 909 558.5 C 909.55 558.225 910.0188457349318 557.4375 910.0418794109594 556.75 C 910.0649130869871 556.0625 908.0399130869871 553.5875 905.5418794109594 551.25 C 903.0438457349318 548.9125 900.55 547 900 547 Z " class="odd" fill="#000000"></path><path d="M 322 550.351845518072 C 325.1763807981991 550.5839593879839 330.6685716388194 552.1110029128564 335 553.9663531707414 C 339.125 555.7332806541477 344.525 558.5752959067884 347 560.281942621054 C 349.475 561.9885893353195 353.6606703079521 565.2108259014183 356.30148957322695 567.4424683234956 C 358.94230883850173 569.6741107455731 362.5660539293556 573.525 364.354256441791 576 C 366.14245895422647 578.475 368.5255889173099 582.525 369.6501008041987 585 C 370.77461269108744 587.475 372.7519766328983 593.325 374.04424289711164 598 C 375.33650916132507 602.675 376.73212086303704 608.3 377.1456022342494 610.5 C 377.5590836054617 612.7 378.66251495645935 617.425 379.597671903133 621 C 380.53282884980666 624.575 383.0099359861106 633.125 385.10235442825274 640 C 387.1947728703949 646.875 389.56465200242906 655.2 390.36875249943967 658.5 C 391.1728529964502 661.8 392.1407148673496 666.525 392.5195566569937 669 C 392.8983984466378 671.475 394.2481035160784 677.1 395.5189012557506 681.5 C 396.7896989954228 685.9 398.0836228781301 690.175 398.39428766176695 691 C 398.70495244540376 691.825 399.67314183002713 696.55 400.5458196275967 701.5 C 401.41849742516627 706.45 402.75253316783466 714.325 403.51034350019313 719 C 404.26815383255166 723.675 405.5883398627912 730.9875 406.4440902340589 735.25 C 407.56185100041694 740.8175760438685 407.9979828610956 748.984065686167 407.9928369433146 764.25 L 407.9856738866292 785.5 L 410.3708133343637 793.5 C 411.6826400306177 797.9 414.4161771912818 805.55 416.44534035806186 810.5 C 418.4745035248419 815.45 422.19952028608793 823.325 424.72315538305304 828 C 427.24679048001815 832.675 430.70397669486243 838.5112918678361 432.4057914160403 840.9695374840802 C 434.1076061372181 843.4277831003243 436.8500682053936 847.2527831003243 438.50015156754137 849.4695374840802 C 440.1502349296891 851.6862918678361 444.97694266308366 857.55 449.2261687528626 862.5 C 453.47539484264155 867.45 460.225326637248 874.2228466364154 464.22601718532127 877.5507703031454 C 468.22670773339456 880.8786939698755 473.975 885.3518776374934 477 887.4911784534075 C 480.025 889.6304792693217 485.1502431105688 893.4326326329062 488.3894291345973 895.9404081502621 C 491.6286151586258 898.448183667618 495.9036151586258 901.8871737976075 497.8894291345973 903.5826084391279 C 499.87524311056876 905.2780430806482 504.65 908.8434913371501 508.5 911.50582678691 C 512.35 914.1681622366699 517.75 917.9423042651499 520.5 919.8928090724212 C 523.25 921.8433138796925 531.6915839680706 927.5028656231905 539.2590754846013 932.469590724639 C 546.826567001132 937.4363158260876 554.9265670011321 942.6799717465705 557.2590754846013 944.1221594368233 C 559.5915839680706 945.5643471270761 563.525 948.0208006025513 566 949.5809449378793 C 568.475 951.1410892732073 573.875 954.4680954770272 578 956.974292057479 C 582.125 959.480488637931 594.05 965.8559655407988 604.5 971.1420185082965 C 614.95 976.4280714757941 625.3 981.3061454302898 627.5 981.9821828516201 C 629.7 982.6582202729505 633.975 984.351676036565 637 985.7454178818743 C 640.025 987.1391597271838 644.3 988.9155370132415 646.5 989.6929229620026 C 648.7 990.4703089107637 653.65 991.9544849292093 657.5 992.9910918918818 C 661.35 994.0276988545543 667.425 995.3624850640782 671 995.9572834686015 C 674.575 996.5520818731248 683.575 997.4966821338423 691 998.0563951590847 C 701.3927244336168 998.8398218571655 704.9102972641871 999.4683275958445 706.2825947355461 1000.78702760249 C 707.690691521956 1002.1401287196677 708.0566209323428 1004.0756439545758 708.02440358134 1010 C 708.0019713419763 1014.125 708.4144137237361 1019.975 708.9409422074729 1023 C 709.4674706912097 1026.025 710.3768857539064 1031.875 710.9618645690214 1036 C 711.5468433841362 1040.125 712.7545387975725 1046.875 713.6456321544354 1051 C 714.5367255112983 1055.125 717.1934275220657 1064.35 719.5494144005852 1071.5 C 721.9054012791046 1078.65 724.4905697610369 1085.85 725.2942332493235 1087.5 C 726.0978967376102 1089.15 727.5386350412787 1092.075 728.4958739241423 1094 C 729.4531128070059 1095.925 729.9581388988818 1098.2875 729.6181541283108 1099.25 C 729.2781693577399 1100.2125 725.2875 1102.7407247293297 720.75 1104.868277176288 C 716.2125 1106.9958296232464 707.775 1110.3502686983718 702 1112.322586232122 C 696.225 1114.294903765872 688.125 1116.5882776691358 684 1117.418972683819 C 679.875 1118.249667698502 668.625 1120.253436237518 659 1121.87179165941 C 649.375 1123.490147081302 633.625 1125.4185484487086 624 1126.157128031425 C 614.375 1126.8957076141412 594.125 1127.4803189082702 579 1127.4562642406006 C 559.1580131268623 1127.4247077182774 547.8798483400287 1126.9407029333818 538.5 1125.7181983266184 C 531.35 1124.7863167415978 520.775 1123.3391281955376 515 1122.5022237798178 C 509.225 1121.665319364098 500.9 1120.3052988112736 496.5 1119.4799558846526 C 492.1 1118.6546129580315 485.35 1117.1149060365055 481.5 1116.058384947928 C 477.65 1115.0018638593504 471.35 1113.4200689896338 467.5 1112.5432852374465 C 463.65 1111.6665014852595 456 1109.5703931643504 450.5 1107.8852667465376 C 445 1106.2001403287247 434.875 1102.9987115895146 428 1100.7709806594037 C 421.125 1098.5432497292927 413.3625 1095.658434609518 410.75 1094.3602803932374 C 408.1375 1093.0621261769568 405.8037662570849 1091.6625 405.5639250157442 1091.25 C 405.32408377440345 1090.8375 405.7230186000635 1086.9 406.45044685054427 1082.5 C 407.17787510102505 1078.1 409.14737323518233 1066.85 410.8271093708938 1057.5 C 412.5068455066054 1048.15 415.0239653905008 1032.625 416.4207091128837 1023 C 417.8174528352666 1013.375 419.4295993531202 999.65 420.0032569303361 992.5 C 420.576914507552 985.35 421.50182502261464 969.15 422.0586136304753 956.5 C 422.6154022383359 943.85 422.8060461693573 927.2 422.4822668105227 919.5 C 422.15848745168813 911.8 421.21818228856574 898.525 420.3926997813618 890 C 419.5672172741578 881.475 418.21446035560996 870 417.3865732956998 864.5 C 416.5586862357897 859 415.2626604147703 849.775 414.5065159156568 844 C 413.7503714165432 838.225 412.44416518629714 828.325 411.6038354039988 822 C 410.76350562170046 815.675 409.3559223453034 806.45 408.4758725675608 801.5 C 407.59582278981827 796.55 405.7851357455493 787.55 404.45212358029653 781.5 C 403.11911141504373 775.45 402.0220604509645 768.5875 402.01423254900936 766.25 C 402.00408296901685 763.2192206968799 401.49796794834356 761.7437783669272 400.25 761.1068541213696 C 399.1050317343349 760.5224977284316 395.9070068528506 760.8912916804222 391 762.1735575343617 C 385.5656679630138 763.5936204401123 381.2966208394519 764.0231110190396 375.5 763.7329462646078 C 369.9051846505555 763.4528834026532 365.85275283753214 762.6060469258912 362.0210122238643 760.9162428516156 C 359.0075689469897 759.587309283227 354.23647721111814 756.7 351.41858614414974 754.5 C 348.60069507718134 752.3 344.4287395764424 748.8125 342.1475739202854 746.75 C 339.86640826412844 744.6875 335.21384849019626 738.8375 331.8085522004361 733.75 C 328.40325591067597 728.6625 321.6119520410314 718.875 316.7167658234481 712 C 311.8215796058649 705.125 305.30126610142617 695.45 302.2271802580288 690.5 C 299.1530944146314 685.55 294.019398284276 676.2125 290.81896663501675 669.75 C 287.61853498575755 663.2875 283.90017599006427 654.7375 282.55594664458727 650.75 C 281.2117172991102 646.7625 278.9195247987212 636.75 277.4621855326118 628.5 C 275.388660673053 616.7617723345728 274.94458997831316 611.7603880882278 275.42002570726333 605.5 C 275.75417706943125 601.1 276.92136956982023 594.2375 278.0137868192388 590.25 C 279.10620406865746 586.2625 281.0891724457723 580.8625 282.42038321282735 578.25 C 283.75159397988233 575.6375 287.0140939798823 570.8416743967356 289.67038321282735 567.5926097705235 C 292.3266724457723 564.3435451443113 296.975 559.9549331504566 300 557.8401386730684 C 303.025 555.7253441956801 307.975 553.0849047891446 311 551.9724955474337 C 314.86298677576036 550.5519262284379 318.13701322423964 550.0695579502689 322 550.351845518072 Z " class="even" fill="#ffffff"></path><path d="M 459.5 554.3870636499773 C 460.05 554.5644858985671 460.7902781524233 555.3374784062908 461.14506256094063 556.1048247782521 C 461.49984696945796 556.8721711502135 462.3250265487089 560.875 462.9787949592759 565 C 463.63256336984296 569.125 464.78432999092905 577 465.5382763394672 582.5 C 466.29222268800527 588 468.06360099899916 597 469.47467258612016 602.5 C 470.8857441732412 608 473.6044264258463 615.65 475.51618870302036 619.5 C 477.42795098019434 623.35 480.6813930899496 628.5986123021892 482.746060058032 631.1635828937538 C 484.8107270261144 633.7285534853185 488.075 636.7339525369126 490 637.842247452852 C 491.925 638.9505423687914 499.35 641.2118000239394 506.5 642.867264464292 C 513.65 644.5227289046446 523.1 646.5973094809226 527.5 647.4774435226875 C 531.9 648.3575775644523 543.375 649.9996719200408 553 651.1265420906618 C 564.3601366301832 652.4565575818547 579.9729320562888 653.3645852423194 597.5 653.7146264015031 C 615.321604434537 654.0705498848155 628.0693760532356 653.8495296119967 635 653.0644531415313 C 640.775 652.4102816482051 649.1 651.2646259477965 653.5 650.5185515850678 C 657.9 649.7724772223393 663.975 648.0910852806438 667 646.7821250479669 C 671.0124946140214 645.0458619459557 673.3434790271006 643.198373124152 675.6187346901613 639.9510986760954 C 677.3340387697501 637.5029944042429 681.0167296258834 631 683.8024921482353 625.5 C 686.5882546705872 620 690.9223240600145 610.8875 693.4337574580738 605.25 C 695.9451908561333 599.6125 698.3008410872026 593.7625 698.6685357493391 592.25 C 699.0362304114755 590.7375 700.3862304114755 587.1375 701.6685357493391 584.25 C 703.2662140133649 580.6523420544588 705.3376102345619 578.05009720007 708.25 575.9818660209155 C 710.6091555977148 574.3065136276425 714.9469751088396 572.4704345372392 718 571.8549605363693 C 721.1351075557199 571.2229390955802 727.7998044441458 570.9767934521109 733.5 571.2825027730764 C 740.2326865072114 571.6435860026297 745.6975310198816 572.5835612133433 750.2258040121704 574.1594082576227 C 754.4466080223634 575.6282555500169 757.291552232601 577.2448923570905 757.8643418039918 578.5 C 758.3663453827999 579.6 759.3303856790682 583.425 760.0066535734771 587 C 760.6829214678861 590.575 762.3447492278424 597.1 763.6996041511579 601.5 C 765.0544590744735 605.9 767.3004452947571 612.425 768.6906846406771 616 C 770.0809239865971 619.575 772.7824515519173 625.65 774.6940792302776 629.5 C 776.6057069086379 633.35 779.9315685866092 638.8625 782.0848829591027 641.75 C 784.2381973315962 644.6375 787.9125 648.3695245339982 790.25 650.0433878533292 C 792.5875 651.7172511726604 796.75 653.9243193923112 799.5 654.9479838969977 C 802.25 655.9716484016842 809.225 657.728364624562 815 658.8517977256151 C 820.775 659.9752308266682 830.225 661.1932449088994 836 661.5584956861289 C 841.775 661.9237464633584 856.2875 661.7225057064824 868.25 661.1112940041821 C 880.2125 660.500082301882 894.3875 659.3014073228536 899.75 658.4475718285636 C 905.1125 657.5937363342736 914.225 655.5297788334055 920 653.8609996044125 C 925.775 652.1922203754195 931.0625 651.0908130525659 931.75 651.413427775849 C 932.6826143348878 651.8510643076012 932.8575248397264 654.4756081878753 932.4388721044502 661.75 C 932.1302517618977 667.1125 931.4552517618978 672.9625 930.9388721044502 674.75 C 930.4224924470026 676.5375 929.6625 677.9921722149888 929.25 677.9826049221974 C 928.8375 677.9730376294061 926.25 680.1308698452218 923.5 682.7777876240102 C 920.75 685.4247054027985 916.025 689.0881189931889 913 690.9187067137667 C 909.975 692.7492944343445 904.35 696.6120759941206 900.5 699.5026657354915 C 896.65 702.3932554768625 892.6 705.7590177573043 891.5 706.9821374698067 C 889.7098643015408 708.9726377069338 889.4298384491659 711.1626617543077 888.8313626918066 727.8529957462692 C 888.4636121723003 738.1088480858211 887.4767447469646 753.025 886.6383239688386 761 C 885.7999031907125 768.975 884.1450459125425 780.675 882.9608633506832 787 C 881.7766807888238 793.325 880.4010482141595 799.2875 879.9039020736512 800.25 C 879.406755933143 801.2125 879.0004628049104 802.7875 879.0010284553566 803.75 C 879.0015941058027 804.7125 876.3409711834697 810.9 873.0885330723945 817.5 C 869.8360949613194 824.1 864.1868707315269 835.8 860.5347014506335 843.5 C 856.8825321697401 851.2 851.4080158780819 863.8 848.3691096913929 871.5 C 845.3302035047038 879.2 840.4382138987521 890.45 837.4980216781668 896.5 C 834.5578294575814 902.55 829.9804686715726 911.2941760140832 827.3261088203694 915.9315022535181 C 824.6717489691663 920.568828492953 821.9375 924.506328492953 821.25 924.6815022535181 C 820.5625 924.8566760140832 818.6578985325117 922.4125 817.0175522944705 919.25 C 815.3772060564294 916.0875 812.4254043522476 911.925 810.4579929518445 910 L 806.8808813147479 906.5 L 782.690440657374 906.7880104276885 C 769.3856982958183 906.9464161629172 754.675 907.4699577282349 750 907.9514361283946 C 745.325 908.4329145285542 736.55 910.0204232680518 730.5 911.4792333272779 C 724.45 912.9380433865041 716.575 915.283180034232 713 916.6906481000065 C 709.425 918.098116165781 705.375 920.2581358443449 704 921.4906918301485 C 702.625 922.723247815952 697.9 926.2337868692852 693.5 929.2918897264443 C 689.1 932.3499925836035 684.375 935.273577510938 683 935.7887451205212 C 681.1598218898863 936.4781997810263 678.1246411964092 936.0844098297708 671.5 934.2967138720456 C 666.55 932.960929075801 654.4 929.8552613670433 644.5 927.3952300748065 C 634.6 924.9351987825696 618.85 920.3988885535412 609.5 917.3145406769655 C 600.15 914.2301928003899 592.05 911.377717436713 591.5 910.9757065354615 C 590.95 910.57369563421 589.375 909.8939001235952 588 909.4650498452064 C 586.625 909.0361995668176 581.675 906.4563119734986 577 903.7319663044975 C 572.325 901.0076206354964 566.475 897.6359753541645 564 896.2394212348712 C 561.525 894.8428671155779 558.15 892.6092752498417 556.5 891.2758837554577 C 554.85 889.9424922610737 551.3501721140406 886.297440077484 548.7226046978678 883.1757677919252 C 545.9701316600856 879.9057018191523 543.2805349750156 875.3807256503914 542.3770442810046 872.5 C 541.3723830321936 869.2966981302754 540.4962784830128 860.6725471049532 539.9389481578498 848.5 C 539.4604861032168 838.05 538.1661033944283 823.2 537.0625421383199 815.5 C 535.9589808822116 807.8 534.3273212284479 796.1 533.436631796623 789.5 C 532.5459423647981 782.9 531.1363995134423 775.475 530.3043143491657 773 C 529.4722291848892 770.525 528.0508599800319 767.6590183100765 527.1457161161496 766.6311518001698 C 526.2405722522674 765.6032852902632 521.45 761.6717694290393 516.5 757.8944498863386 C 511.54999999999995 754.1171303436381 502.9253700194209 747.5331120335617 497.33415559871304 743.2632980861688 C 491.7429411780052 738.993484138776 485.05434248940185 734.15 482.4706029573723 732.5 C 479.8868634253427 730.85 475.46149340592183 728.0379215238002 472.6364473586592 726.2509367195557 C 469.81140131139665 724.4639519153114 465.3625 721.2014519153115 462.75 719.0009367195557 C 460.1375 716.8004215238001 457.1467428962342 713.3125 456.10387310274257 711.25 C 455.061003309251 709.1875 451.8572119198252 700.525 448.9843366817963 692 C 446.1114614437674 683.475 443.18877384139034 675.375 442.48947534318063 674 C 441.790176844971 672.625 438.88033361283067 663.175 436.0231570495356 653 C 433.1659804862406 642.825 429.7563364160975 631.125 428.4461702269955 627 C 427.13600403789354 622.875 424.94787465568277 615.225 423.5836604887494 610 C 422.21944632181595 604.775 418.78761958586364 593.3 415.95737885329976 584.5 C 413.1271381207359 575.7 410.7414021245127 567.3860837610091 410.65574330613725 566.0246305800201 L 410.5 563.5492611600404 L 416.5 562.373332397905 C 419.8 561.7265715787304 429.925 559.9603938434332 439 558.4484929861333 C 448.075 556.9365921288334 456.175 555.3316838030617 457 554.8820300399739 C 457.825 554.432376276886 458.95 554.2096414013877 459.5 554.3870636499773 Z " class="even" fill="#ffffff"></path><path d="M 979.5 559.5487536902372 C 981.7 559.8245649349204 985.2731719441205 561.276427227442 987.4403820980455 562.7751143402852 C 989.6075922519705 564.2738014531284 992.3075922519705 567.075 993.4403820980455 569 L 995.5 572.5 L 995.8286536911796 593 C 996.0551253081762 607.1263228529926 995.6547171699035 618.1636662051274 994.5407994988088 628.5 C 993.651720162856 636.75 992.2774323793071 647.775 991.4868266464779 653 C 990.6962209136486 658.225 988.6615893075325 667.45 986.9654230773309 673.5 C 985.2692568471293 679.55 982.4974139395148 689 980.8057721715207 694.5 C 979.1141304035267 700 975.8149193091523 709.225 973.4741919617996 715 C 971.133464614447 720.775 967.6466875371027 729.1 965.7257984565899 733.5 C 963.8049093760771 737.9 960.4932864631347 744.8180823960604 958.3666364278288 748.8735164356898 C 955.978593762607 753.4274154561438 953.3528062126824 756.9528851538446 951.5 758.0928908866556 C 949.7191194639383 759.1886417572352 946.569727515431 759.9511943029055 943.75 759.9693744509659 C 941.1375 759.9862185029347 937.3125 759.3237702164583 935.25 758.4972671476853 C 933.1875 757.6707640789123 930.9375 756.0957640789122 930.25 754.9972671476853 C 929.2385730442062 753.381195282813 929.2830036265855 751.9025639966516 930.4827933910509 747.25 C 931.2983297561289 744.0875 932.841255784715 737.675 933.91151789902 733 C 934.981780013325 728.325 936.1412912173537 720.9 936.488209463528 716.5 C 936.8351277097024 712.1 937.7409568650239 705.125 938.5011631420201 701 C 939.2613694190163 696.875 940.3847792558247 683.375 940.9976294460388 671 C 941.9922904765457 650.9152705684498 942.4155578847007 647.53389177262 944.9406728499077 639.5 C 946.4964965318217 634.55 948.2552346738129 627.125 948.8489798321106 623 C 949.4427249904082 618.875 950.1586017746041 607.625 950.4398171303236 598 C 950.7210324860431 588.375 951.2996162772419 578.2998610437205 951.7255588885432 575.6108023193788 C 952.2236046975929 572.4665420542328 953.3922411863155 569.8319701669976 955 568.2289084782221 C 956.375 566.8579255899275 959.525 564.8286360041949 962 563.719376065483 C 964.475 562.610116126771 968.525 561.1051060627699 971 560.3749092565915 C 973.475 559.6447124504133 977.3 559.2729424455538 979.5 559.5487536902372 Z " class="even" fill="#ffffff"></path><path d="M 319.75 574.1095656673232 C 317.4125 574.1698267843509 313.475 574.6321208343135 311 575.1368857783509 C 308.525 575.6416507223885 304.475 577.1756183317059 302 578.5457026879451 C 299.525 579.9157870441844 295.3023282401336 582.7159929942219 292.6162849780747 584.7683825769174 C 289.9302417160158 586.8207721596128 286.48153929781864 590.3 284.9525018265256 592.5 C 283.42346435523245 594.7 281.90863611509883 597.5125 281.5862168484508 598.75 C 281.1989290806483 600.2364763437942 281.52630730216447 601.254507885402 282.5509557827646 601.75 C 283.62820353916544 602.2709276926389 285.0789948191189 601.4309958989817 287.3009557827646 599 L 290.5 595.5 L 290.8157992067871 599.5 C 290.98948877052 601.7 290.65198877052 605.4125 290.0657992067871 607.75 C 289.4796096430542 610.0875 288.99254831103906 614.1375 288.9834406911979 616.75 C 288.9743330713568 619.3625 289.4243330713568 622.9625 289.9834406911979 624.75 C 290.6842007082171 626.9903710591133 291.5436463527852 627.918098194522 292.75 627.7363577280483 C 294.1197956072685 627.5299942846143 294.65607069846425 626.0634916269356 295.21836024920754 620.9863577280483 C 295.6134583862717 617.4188609776218 296.45548951863265 611.35 297.089540543343 607.5 C 297.7235915680534 603.65 298.8442690259268 599.375 299.57993489417277 598 C 300.3156007624188 596.625 303.18606963005783 593.1375 305.9587546000373 590.25 L 311 585 L 315.75 585.009768915704 C 318.61998182588235 585.0156713600259 322.47896649907125 585.9453946869697 325.5 587.3587812091919 C 328.25 588.6453650669729 333.2 591.9572916981369 336.5 594.718618167334 C 340.0059384200391 597.652266821464 344.8217831564327 603.2227482501875 348.08554730585865 608.1196058738462 C 351.1575983240809 612.7288226432307 354.42009832408087 617.7375 355.33554730585865 619.25 C 356.2509962876364 620.7625 357 622.9 357 624 C 357 625.1 355.51299604209356 628.1375 353.6955467602079 630.75 C 351.8780974783222 633.3625 349.2967837167357 638.65 347.9592939566823 642.5 C 346.1639056021873 647.6680733350286 345.551069941806 651.4627785696123 345.61757924468213 657 C 345.6727455863683 661.592865001005 346.34574842533266 665.9535674994976 347.35383204820766 668.25 C 348.2592244216935 670.3125 350.6875 673.8628926775817 352.75 676.1397615057372 C 354.8125 678.4166303338926 359.2 682.345299136307 362.5 684.8701366222133 C 365.8 687.3949741081198 369.2748555285911 690.3695814305381 370.22190117464686 691.4803751164761 C 371.1689468207027 692.5911688024142 372.23424868880335 694.4 372.58923865931513 695.5 C 372.94422862982685 696.6 374.359046171012 699.975 375.73327763972657 703 C 377.1075091084412 706.025 378.46220583183486 710.075 378.7437148028236 712 C 379.02522377381234 713.925 378.686133514285 717.3 377.99018089276285 719.5 C 377.1627945177235 722.1154798024977 374.5225925022669 725.6633128085973 370.36240624499766 729.75 C 366.86308281024895 733.1875 364.225 736.45 364.5 737 C 364.775 737.55 366.125 738 367.5 738 C 368.875 738 372.3625 736.9626352541571 375.25 735.694745009238 C 378.1702372673571 734.4124799549934 381.71325747536133 731.8608350573369 383.2340130633909 729.944745009238 C 384.73772024825587 728.0501352541571 386.6561198224871 724.25 387.4971232283492 721.5 C 388.3381266342113 718.75 389.02783663710034 715.375 389.0298121236582 714 C 389.031787610216 712.625 387.6698723380469 706.775 386.00333374106015 701 C 384.3367951440734 695.225 381.96677926265846 688.8313110559685 380.7366317823603 686.7918023465968 C 379.5064843020621 684.752293637225 374.7075773468845 680.027293637225 370.0723941041877 676.2918023465968 C 365.43721086149094 672.5563110559685 360.712210861491 668.2217592730012 359.5723941041877 666.6594650511138 C 358.31284207510953 664.933055218492 357.3500135300826 661.7952656505058 357.1175996722083 658.6594650511138 C 356.8637909547135 655.2349983014522 357.44120062832786 651.314213518705 358.8346762991391 647 C 360.3197366093079 642.4022395938264 362.4070495789303 638.8172495900767 365.9670766269308 634.75 C 370.0692005616375 630.0634170985442 371.004718274967 628.3064671096452 371.0255121730669 625.25 C 371.041292328706 622.9304961501485 369.84372251041026 619.2112061597624 367.8861211176329 615.5 C 366.14542434195744 612.2 362.68404138928054 606.575 360.1941590005731 603 C 357.70427661186574 599.425 354.279502586811 594.769628141858 352.5835500560071 592.6547292041288 C 350.8875975252032 590.5398302663996 346.575 586.6279413466088 343 583.9616427157048 C 339.425 581.2953440848007 333.6875 577.9632159429428 330.25 576.556913511576 C 326.5867527017224 575.0582564694623 322.2410081628288 574.0453470857543 319.75 574.1095656673232 Z " class="odd" fill="#000000"></path><path d="M 981 576.2566524292887 C 979.625 576.1228112653974 977.6 576.5195672261999 976.5 577.138332342183 C 975.4 577.7570974581661 972.9967592329981 579.6666038649862 971.1594649622181 581.3816799128942 C 969.322170691438 583.0967559608024 966.4477636502094 587.2 964.7718937594877 590.5 C 963.0960238687661 593.8 959.7079678307484 601.675 957.2428803416707 608 C 954.7777928525929 614.325 951.9079732709343 622.875 950.8655034935405 627 C 949.8230337161467 631.125 948.9833905541363 637.425 948.9996298001842 641 L 949.0291557020893 647.5 L 954.5857449486447 653 C 957.772392224233 656.1541939196966 960.5888492280961 659.9927856874658 961.1892377314936 662 C 961.9321154849627 664.4835832977957 961.9059306269527 667.3876310183795 961.0990709693417 672 C 960.4736823051967 675.575 958.8936932511372 680.3 957.5879841825429 682.5 C 956.2822751139485 684.7 952.6182722610547 689.425 949.4457556205568 693 C 946.2732389800591 696.575 942.8500962488664 701.4125 941.8387717734622 703.75 C 940.7302729392306 706.3121015688172 940 710.3829154322581 940 714 C 940 717.3333333333334 940.6666666666666 721.3333333333334 941.5 723 C 942.325 724.65 943.9 726.45 945 727 C 946.1 727.55 947.675 727.775 948.5 727.5 C 949.325 727.225 949.9974903795188 725.9875 949.9944230655973 724.75 C 949.9913557516758 723.5125 949.5155337137915 720.7 948.9370407591877 718.5 C 948.1167415112571 715.3804143056798 948.2280208026747 713.3444562237953 949.4426176935904 709.25 C 950.48911510775 705.7222140467849 952.6713554719637 702.113765567807 956.094962640788 698.25 C 958.8971920932214 695.0875 962.2680761240166 690.7 963.585816042555 688.5 C 964.9035559610936 686.3 966.6554817788151 682.025 967.4789845263806 679 C 968.3024872739461 675.975 968.9890549321118 671.025 969.0046904334156 668 C 969.0203259347193 664.975 968.4938722034186 660.925 967.8347932527473 659 C 967.175714302076 657.075 965.1432626131151 652.9125 963.3182339439452 649.75 C 961.4099036301067 646.4431507874561 960.0029768349248 642.6190886853509 960.0070060353645 640.75 C 960.010859354815 638.9625 960.9307165201901 633.675 962.0511330695315 629 C 963.1715496188729 624.325 965.2078089169911 617.35 966.5761537320166 613.5 C 967.944498547042 609.65 970.253121892038 603.575 971.7064278320079 600 C 973.1597337719778 596.425 974.9346691447525 592.825 975.6507286603962 592 C 976.7226650551884 590.7649804151986 977.3543075032246 590.7183115158894 979.2263275262379 591.7358168945756 C 980.4768473868071 592.4155161865922 982.625 593.9307464846779 984 595.1029953347663 C 985.375 596.2752441848546 987.0625 596.9566265822956 987.75 596.6171784401906 C 988.4375 596.2777302980858 989 594.875 989 593.5 C 989 592.125 987.65 589.425 986 587.5 C 983.6494845360825 584.7577319587629 983.0541237113403 583.1881443298969 983.25 580.25 C 983.473056106174 576.9041584073894 983.2305610617404 576.4737730755678 981 576.2566524292887 Z " class="odd" fill="#000000"></path><path d="M 652 585.0316092538094 C 651.725 585.0673276767378 648.5334992638542 588.3373276767378 644.9077761418982 592.298275920476 C 641.0589780030975 596.502924128738 634.0537839820497 602.4131261996671 628.0748774666062 606.5 C 622.4425063171514 610.35 616.514814178957 614.4 614.9022282706185 615.5 C 613.0376187141602 616.7719139498233 612.0666790796964 618.224367107246 612.2351269459107 619.4897843313172 C 612.3808071256598 620.5841657135416 613.4 621.641776384227 614.5 621.8400302661737 C 615.6 622.0382841481205 618.3 621.67323126499 620.5 621.028801636995 C 622.7 620.3843720090001 627.8267049671438 618.2017613383146 631.8926777047639 616.1785557021385 C 635.958650442384 614.1553500659624 641.6523299007094 610.25 644.5452987232649 607.5 C 647.7777123055466 604.4273304012232 650.8064435319102 600.2835700385932 652.4026210185009 596.75 C 653.8311794583254 593.5875 655.0074999999999 590.2125 655.0166666666667 589.25 C 655.0258333333334 588.2875 654.4633333333334 586.9300000000001 653.7666666666667 586.2333333333333 C 653.0699999999999 585.5366666666666 652.275 584.9958908308809 652 585.0316092538094 Z " class="odd" fill="#000000"></path><path d="M 798.75 587.9554746489301 C 798.0625 587.9309857058417 796.9375 588.6059857058417 796.25 589.4554746489301 C 795.5625 590.3049635920186 795.1968202714678 591.7875 795.4373783810396 592.75 C 795.6779364906114 593.7125 798.4904364906114 596.906662800101 801.6873783810396 599.8481395557799 C 804.8843202714678 602.7896163114589 810.65 606.7022439841357 814.5 608.542867717284 C 818.5297898970741 610.4694461391426 824.1576292412738 612.2311458301941 827.763329543789 612.694728161504 C 833.370900042219 613.4156895244973 834.0252635089408 613.316778229318 834.013329543789 611.75 C 834.0059982947051 610.7875 832.5375 608.9123620992285 830.75 607.5830268871746 C 828.9625 606.2536916751205 823.675 603.347033875128 819 601.1237873316354 C 814.325 598.900540788143 808.1375 595.0381786889145 805.25 592.540760444461 C 802.3625 590.0433422000074 799.4375 587.9799635920185 798.75 587.9554746489301 Z " class="odd" fill="#000000"></path><path d="M 772 643.815663818534 C 771.175 643.5290870652601 769.9375 643.4533267615687 769.25 643.6473075881089 C 768.5625 643.8412884146491 768.0053220652467 644.7875 768.0118268116594 645.75 C 768.018331558072 646.7125 770.9852461795668 649.975 774.6049704149814 653 C 779.6273930555271 657.1972336839939 781.9340410572007 660.0396329189164 784.3431436033221 665 L 787.5 671.5 L 787.4152211246678 683.5 C 787.3439878320598 693.5826946328941 786.9128158658405 696.7782035780706 784.7166089560474 703.5 C 783.2790006447389 707.9 780.7327664022223 713.3 779.058310639344 715.5 C 777.3838548764655 717.7 774.8857303523447 721.1875 773.5069228079643 723.25 C 772.1281152635839 725.3125 767.3697346103942 730.4875 762.9327435786538 734.75 C 756.4548123282553 740.9731773193358 754.9279896475912 742.9925234453756 755.1827435786538 745 C 755.4132574113794 746.8164630974804 756.1835369025196 747.5787114665163 758 747.7878830178231 C 759.3952001565568 747.9485447904378 762.7095996868862 746.7924903235594 765.5 745.1719013227234 C 768.25 743.5747757306159 772.75 741.3549499657664 775.5 740.2389551786134 C 778.25 739.1229603914603 784.3030954301464 736.7001521542552 788.9513231781032 734.8549368737131 C 795.2813022581189 732.3421137597657 798.8954498336319 730.1194596640547 803.3498968001558 726 C 806.620884544328 722.975 810.4119306247927 718.7 811.774443645633 716.5 C 813.4949028812701 713.7220373233076 814.2331095271967 711.1252080112788 814.19075821098 708 C 814.1572182010805 705.525 813.2747072383388 701.475 812.2296227382205 699 C 811.1845382381024 696.525 807.564625365639 691.575 804.185371910524 688 C 798.8784632879368 682.3856835310673 797.7811240824849 680.5461869665429 796.1320384282561 674.5 C 795.0819584681237 670.65 793.4976716562574 665.8125 792.611401068553 663.75 C 791.7251304808489 661.6875 788.8625 657.6947642133814 786.25 654.8772538075141 C 783.6375 652.0597434016469 779.7 648.5355037053382 777.5 647.0456100379392 C 775.3 645.5557163705403 772.825 644.1022405718079 772 643.815663818534 Z " class="odd" fill="#000000"></path><path d="M 799.25 695.0314248736191 C 799.9375 695.0487085541097 801.2332792811978 696.0612085541096 802.1295095137731 697.2814248736191 C 803.0257397463483 698.5016411931286 804.2863599545567 701.525 804.9308877542362 704 C 805.7456885952621 707.128851978986 805.7980260231303 709.414098680676 805.1026550775287 711.5 C 804.55259930566 713.15 803.5169790974516 715.0393865205551 802.8012768370655 715.6986367123448 C 801.7676356850753 716.6507478979704 800.900634174333 716.1365689057452 798.5858113870374 713.1986367123448 L 795.6716227740748 709.5 L 796.8358113870374 704.75 C 797.4761151241668 702.1375 798 698.875 798 697.5 C 798 696.125 798.5625 695.0141411931286 799.25 695.0314248736191 Z " class="even" fill="#ffffff"></path><path d="M 666.75 699.015312774517 C 666.0625 699.0237348005014 664.9738876293535 699.3612348005014 664.3308613985632 699.765312774517 C 663.687835167773 700.1693907485327 661.9447306455348 702.3 660.4572957935894 704.5 C 658.969860941644 706.7 656.6834733122906 710.6375 655.3764343950262 713.25 C 654.0693954777618 715.8625 652.7288055328369 720.3625 652.3973456285263 723.25 C 652.0658857242157 726.1375 652.2908857242157 731.0875 652.8973456285263 734.25 C 653.5038055328369 737.4125 655.0125 741.3739540445494 656.25 743.0532312101097 C 657.4875 744.73250837567 660.2692038159638 747.32000837567 662.4315640354752 748.8032312101097 C 665.0423333126212 750.5940302510722 668.0658508536565 751.6375306431203 671.4315640354752 751.9093827045099 C 674.4650624744537 752.1544014447619 677.820782318641 751.7529092408968 679.7896836001446 750.9093827045099 C 682.2532909805816 749.8539117064668 683.0805830179141 748.8722221343176 683.0842089512146 747 C 683.0868719142234 745.625 682.5065142941583 744.0238445729228 681.7945253510699 743.4418768287176 C 681.0825364079815 742.8599090845122 677.9125 741.6224090845121 674.75 740.6918768287176 C 671.4189405770728 739.7117477412859 667.8431153761826 737.8186705895489 666.25 736.1918929408703 C 664.7375 734.647434058349 662.9449851196229 731.6099340583489 662.266633599162 729.4418929408703 C 661.5882820787011 727.2738518233916 661.0208371225244 724.375 661.0056448076582 723 C 660.990452492792 721.625 662.056940727087 717.8 663.375618661647 714.5 C 664.6942965962069 711.2 666.4407857928179 706.925 667.256705765227 705 C 668.0726257376361 703.075 668.5736523837184 700.9375 668.3700983120764 700.25 C 668.1665442404343 699.5625 667.4375 699.0068907485327 666.75 699.015312774517 Z " class="odd" fill="#000000"></path><path d="M 712 716.0665086298105 C 708.6055138511713 716.0800145981742 705.1601275492546 716.7984712464258 703 717.9432531419334 C 701.075 718.9634267652976 697.475 721.5659708394794 695 723.7266844178928 C 692.525 725.8873979963063 689.7125 729.3078222843587 688.75 731.3276272802314 C 687.7875 733.3474322761041 687 736.8 687 739 C 687 742.1111111111111 687.6666666666666 743.6666666666666 690 746 C 692.5988220884723 748.5988220884723 693.5683353746642 748.9431992327991 697.25 748.5752450553573 C 699.5875 748.3416298358039 704.5375 747.441629835804 708.25 746.5752450553573 C 711.9625 745.7088602749108 717.925 743.425 721.5 741.5 C 725.7013336301417 739.2377434299237 728.2165242804978 737.2043077950491 728.6122714638759 735.75 C 728.9490207690076 734.5125 728.6156534857947 731.7 727.8714552789584 729.5 C 727.1272570721221 727.3 724.489234913378 723.3725406814924 722.0091838150826 720.7723126255386 L 717.5 716.0446252510772 L 712 716.0665086298105 Z " class="odd" fill="#000000"></path><path d="M 735 751.4662286073316 C 733.4944079422462 751.0381603423232 732.2016776173261 751.2018347512641 731.75 751.8777156892106 C 731.2934038430773 752.5609566269187 729.5329807846135 752.7740448419231 727.25 752.4224125806252 C 724.5144445165147 752.001073265355 723.0942221933941 752.2836367359558 722 753.4669379316949 C 721.175 754.3590999554395 719.825 755.0489778861769 719 755 C 718.175 754.9510221138231 716.825 755.6344368447711 716 756.5186994021067 C 715.0053882694336 757.5847574777752 713.5734548393717 757.9366847174796 711.75 757.5632247531764 C 710.2185012030694 757.2495600143069 708.270205230636 757.5538641832134 707.3529473662434 758.25 C 706.4470684176771 758.9375 704.4220684176771 759.3875 702.8529473662434 759.25 C 700.6615827700347 759.0579736221094 699.7101318894529 759.5864171377752 698.75 761.528810157266 C 698.0625 762.9196557437622 697.275 764.0646921517437 697 764.0733355083357 C 696.725 764.0819788649279 695.825 763.3739778861768 695 762.5 C 694.175 761.6260221138232 692.7125 760.9309857058417 691.75 760.9554746489301 C 690.7875 760.9799635920185 689.2125 762.3471548169209 688.25 763.9936773709355 C 687.0319403839972 766.0773788045801 685.7400851657184 766.977214143147 684 766.9539937707908 C 682.170975159628 766.9295865528691 681.0974149042232 767.758289327819 680 770.0416743020995 C 678.7967292445912 772.5453129462605 678.0549061331131 773.0477118770416 676.25 772.5813579022442 C 674.8067948977006 772.2084607063415 673.3961411155411 772.627507142656 672.3159505669844 773.75 C 671.3897233788258 774.7125 668.9147233788258 776.2875 666.8159505669844 777.25 C 664.717177755143 778.2125 661.9875 780.359845055321 660.75 782.0218779007132 C 659.2622377944223 784.0200271142918 657.6530691173085 785.0276329148036 656 784.99616370462 C 654.625 784.9699880513764 652.543733435817 785.9726429960555 651.3749631907044 787.2242858039067 C 650.2061929455917 788.475928611758 648.7436929455918 790.5125 648.1249631907044 791.75 C 647.2953154258264 793.4093498226432 646.1468386327069 793.9883115971083 643.75 793.9554746489301 C 641.9625 793.9309857058417 639.9664222678143 794.4934857058417 639.3142717062541 795.2054746489301 C 638.6621211446939 795.9174635920185 635.5623161958088 801.675 632.4258162642873 808 C 629.2893163327658 814.325 625.8785642350997 821.975 624.8463671583627 825 C 623.8141700816258 828.025 622.9764750305108 832.1875 622.9848226003296 834.25 C 622.9951620477673 836.8046489341644 623.5578304973899 838.2839028701137 624.75 838.8906469349088 C 625.7125 839.3805027491086 627.625 839.4453521623388 629 839.034756742087 C 630.375 838.6241613218352 633.975 836.7105316424957 637 834.7822463435546 C 640.025 832.8539610446135 643.175 830.5097795586672 644 829.5729541525628 C 644.825 828.6361287464584 647.3 827.5803765707193 649.5 827.2268382064758 C 651.7 826.8732998422323 654.625 825.5937859520858 656 824.3834740061502 C 657.375 823.1731620602146 661.425 820.7996929552345 665 819.1090982173055 C 668.575 817.4185034793763 672.4 815.4782678178748 673.5 814.7974634139687 C 674.6 814.1166590100626 677.075 812.6054577923409 679 811.4392384856983 C 680.925 810.2730191790556 684.3 809.0966036621351 686.5 808.8249817814303 C 688.7 808.5533599007255 693.2 806.683921530618 696.5 804.6706742923025 C 701.1777646752653 801.816887378979 703.5467696320817 801.0090981389627 707.25 801.0051123840462 C 709.8625 801.0023005728208 712.9 800.55 714 800 C 715.1 799.45 718.5875 798.8331323352395 721.75 798.6291829671989 C 725.6261770192865 798.3792086261722 729.5367641094712 797.2386207248683 733.75 795.1291829671989 C 737.1875 793.4081323352395 740.7875 791.9811380107876 741.75 791.9580844684169 C 742.7125 791.9350309260461 745.075 791.1047760145292 747 790.1130735539348 C 749.9052210431919 788.6163905112832 751.1186812616045 788.4960608708669 754.1406540460616 789.4049890855179 C 757.0874822876052 790.2913158407571 758.1173953057071 790.2141341380946 759.5448303854645 789 C 760.6012769255295 788.1014177614419 763.3514985845784 787.4918785450268 766.4041763394027 787.4797442256599 C 769.2068793527312 787.4686035497729 771.95 787.3028140760887 772.5 787.1113231730284 C 773.05 786.9198322699681 777.2125 786.8164473684211 781.75 786.8815789473684 L 790 787 L 792.75 790.029163996563 C 794.8941730073199 792.391000969718 796.326127717291 793.0519031435508 799.25 793.029163996563 C 802.4302238143151 793.0044311868589 803.2279104742739 793.4558209485479 804.5 796 C 805.6297632915959 798.2595265831917 806.6787672987409 798.9924468188221 808.75 798.9693985725627 C 810.6410155585694 798.9483557451451 812.5151634307816 800.0416086706022 814.75 802.4693985725627 C 816.5375 804.4112293576532 818.3375 806.0146676309957 818.75 806.0325947355461 C 819.1625 806.0505218400965 820.4 805.1198718123173 821.5 803.9644835627037 C 823.1726550051997 802.2076054366444 823.3772456269498 801.1383993417743 822.75 797.4318888271575 C 822.3375 794.9943499722209 820.9202771747393 790.6375 819.6006159438653 787.75 C 818.1646190318455 784.6079503690426 815.4543971287908 781.048433385696 812.8506159438653 778.8847703261829 C 810.4577771747394 776.8963940055835 806.7 774.5086197094226 804.5 773.5786052236032 C 802.3 772.6485907377837 799.6 771.0531813775838 798.5 770.0332510898254 C 797.4 769.013320802067 794.7 767.7127116709178 792.5 767.1430085761604 C 790.3 766.5733054814029 787.6 765.1570239120234 786.5 763.9957161997613 C 785.4 762.8344084874993 782.7 761.3838399943497 780.5 760.7722306594287 C 778.3 760.1606213245078 775.6 758.8619399034659 774.5 757.8862719460024 C 773.4 756.9106039885387 770.8125 755.4120559089985 768.75 754.5561651025796 C 766.6875 753.7002742961608 763.0875 753.0074999999999 760.75 753.0166666666667 C 758.4125 753.0258333333334 755.9388295849476 752.4633333333334 755.252954633217 751.7666666666667 C 754.2467340716507 750.7446139983355 753.2811524992738 750.7607278707849 750.252954633217 751.8501079465668 C 748.0939450786672 752.6268015763038 744.5887717665124 752.9829325903609 742 752.6886208646879 C 739.525 752.4072435990427 736.375 751.8571670832323 735 751.4662286073316 Z " class="odd" fill="#000000"></path><path d="M 775 805.7899914175515 C 771.975 805.5330643770772 767.25 805.48786292464 764.5 805.6895437454691 C 761.75 805.8912245662982 753.65 807.2106316058208 746.5 808.6215593888528 C 739.35 810.0324871718849 727.875 812.7048535942007 721 814.5601514384437 C 714.125 816.4154492826865 703.1 819.9346218963635 696.5 822.3805350243927 C 689.9 824.8264481524217 681.8 828.0352319543957 678.5 829.5111656954462 C 675.2 830.9870994364966 672.1693907485327 832.7133782309055 671.765312774517 833.3473407941326 C 671.3612348005014 833.9813033573596 671.0237348005014 835.0625 671.015312774517 835.75 C 671.0068907485327 836.4375 672.125 837 673.5 837 C 674.875 837 682.8625 834.7380508677754 691.25 831.9734463728344 C 699.6375 829.2088418778932 710.775 825.8693538445207 716 824.5523618542286 C 721.225 823.2353698639366 728.425 821.4722283004819 732 820.6342694909957 C 735.575 819.7963106815096 743.225 818.4083411876753 749 817.5498928380307 C 754.775 816.6914444883861 762.875 815.9871515422285 767 815.9847974021252 C 771.125 815.9824432620218 776.8625 816.6599007892286 779.75 817.4902585736959 C 783.5465467242165 818.5820307387337 785.692120607516 818.7231517569936 787.5 818 C 789 817.4 790 816.2 790 815 C 790 813.9 789.6116643135722 812.2125 789.1370318079382 811.25 C 788.6623993023044 810.2875 786.5248993023043 808.7703545855068 784.3870318079382 807.8785657455707 C 782.2491643135722 806.9867769056345 778.025 806.0469184580259 775 805.7899914175515 Z " class="odd" fill="#000000"></path><path d="M 758.25 846.1220614201952 C 750.6875 846.1891952013025 740.9 846.9094491514318 736.5 847.7226257538157 C 732.1 848.5358023561995 726.1375 849.6058747171118 723.25 850.1005643336205 C 719.5855356747297 850.7283643169202 717.6979932048134 851.6040135903733 717 853 C 716.45 854.1 716.2145960047626 855.5625 716.4768800105835 856.25 C 716.7391640164043 856.9375 718.0891640164043 858.0625 719.4768800105835 858.75 C 720.8645960047626 859.4375 722.5625 861.1265278965247 723.25 862.5033953256104 C 724.085027544699 864.1757185673348 726.0768953301438 865.503630424298 729.25 866.5033953256104 C 731.8625 867.3265278965247 734.7875 868.0143115173418 735.75 868.0318033718704 C 736.7125 868.0492952263992 738.4 868.7328631092623 739.5 869.5508431115662 C 740.6 870.3688231138701 744.425 871.9762602511992 748 873.122925638964 C 751.575 874.2695910267288 755.4 874.9517868808479 756.5 874.6389164258953 C 757.6 874.3260459709427 760.525 872.08951739171 763 869.6688529164896 C 765.475 867.2481884412691 769.3682936096874 863.2949247042869 771.6517635770831 860.8838223898625 C 773.9352335444789 858.4727200754381 776.2977335444789 855.4875 776.9017635770831 854.25 C 777.5057936096874 853.0125 777.775 851.1 777.5 850 C 777.225 848.9 775.875 847.55 774.5 847 C 773.125 846.45 765.8125 846.0549276390879 758.25 846.1220614201952 Z " class="odd" fill="#000000"></path></g></svg>