<svg id="svg" viewBox="0 0 320 320" xmlns="http://www.w3.org/2000/svg" xmlns:xlink="http://www.w3.org/1999/xlink" version="1.1" width="480" height="480" preserveAspectRatio="xMidYMid meet" buffered-rendering="static" style="background: rgb(255, 255, 255);"><g><path d="M 233 31.426202304715225 C 225.575 31.31812108453917 217.925 31.405767063918205 216 31.620971147779745 C 214.075 31.836175231641285 210.7 32.540551889440096 208.5 33.186252609554884 C 206.3 33.83195332966967 204.05 34.663905177153204 203.5 35.03503449285162 C 202.95 35.40616380855005 201.15 36.170038866533446 199.5 36.73253462170362 C 197.85 37.29503037687379 194.025 39.431429875543245 191 41.480089063191286 C 187.975 43.52874825083933 184.825 46.17131606111367 184 47.352461974912046 C 183.175 48.53360788871042 181.375 50.79623440376362 180 52.38052089725248 C 178.625 53.96480739074134 175.60501623799215 57.33980739074134 173.28892497331586 59.88052089725248 C 170.08366348953996 63.396639311035116 168.59085355304106 66.23165952633873 167.03892497331586 71.75 C 165.88306404256807 75.86000495731496 164.82297074434615 83.22275195395574 164.59125346185485 88.75 C 164.366442865875 94.1125 163.85512010103517 105.925 163.45498065109962 115 C 163.0548412011641 124.075 162.35320326255774 131.95 161.8957852319744 132.5 C 161.4383672013911 133.05 161.41891885797972 134.85 161.85256669106025 136.5 C 162.2862145241408 138.15 163.40026781760702 140.625 164.3282406765407 142 C 165.58088343801413 143.85607130687546 166.01741664044508 146.68935755662346 166.0230448027271 153 C 166.02721421319598 157.675 166.46092482599224 162.175 166.98684616449663 163 C 167.7256953118539 164.1590146699565 168.3473541292853 164.24911168162842 169.72153338997958 163.396338216341 C 171.09778831683138 162.54227665635406 171.64717130441272 160.39379044437052 172.1507499951 153.896338216341 C 172.50866249240502 149.27835219735346 172.83502220734943 141.675 172.8759938060876 137 C 172.9300972230534 130.8266144816162 173.5047025715161 127.19983308380272 174.97524381098756 123.75 C 176.0888597149444 121.1375 177.67941730321078 118.6625 178.50981622935728 118.25 C 179.34021515550378 117.8375 180.3527151555038 117.87614477608277 180.75981622935728 118.33587728018395 C 181.16691730321077 118.79560978428512 181.5 122.32605978396097 181.5 126.18132172390807 C 181.5 130.03658366385517 181.1625 133.3729388877724 180.75 133.59544444372412 C 180.3375 133.81794999967585 180 134.9 180 136 C 180 137.1 179.55 138 179 138 C 178.4 138 178 142 178 148 C 178 153.66666666666666 178.43333333333334 158.21666666666667 179 158.5 C 179.55 158.775 180.5625 158.27209471121176 181.25 157.38243269158173 C 181.9375 156.4927706719517 183.2875 155.3677706719517 184.25 154.88243269158173 C 185.2125 154.39709471121176 192.1875 153.4053821021868 199.75 152.67862689374843 C 208.32463430333317 151.85460571815813 214.7232682555758 150.72543502070354 216.75 149.67862689374843 C 219.15075521205915 148.43863542781943 220.02892422195353 148.3266326107465 220.11069096058503 149.25 L 220.22138192117006 150.5 L 220.11069096058503 152.75 C 220.04981093226326 153.9875 220.45 154.775 221 154.5 C 221.55 154.225 221.9977808576081 153.4375 221.99506857246246 152.75 C 221.9923562873168 152.0625 223.1173562873168 149.8125 224.49506857246246 147.75 C 226.73832197883996 144.3917442883116 226.92165114233768 143.40753412377944 226.25 138.32857835553213 C 225.6593314236693 133.86200429085352 224.92989476222337 132.21557957960408 222.81641807695178 130.57857835553213 C 221.34044801927524 129.43536025998947 220.33337001011094 128.05 220.57846694547555 127.5 C 220.82356388084014 126.95 220.11867574621184 125.9375 219.01204886852378 125.25 C 217.9054219908357 124.5625 212.1625 123.39765455515685 206.25 122.66145456701521 C 200.3375 121.92525457887358 194.9375 121.02525457887359 194.25 120.66145456701521 C 193.36008389262557 120.19054330822863 193.18613726379442 118.48764765097268 193.64615936593688 114.75 C 194.21476991489692 110.13007875547567 194.02498080266434 109.25996999791403 192.06478111669128 107.5 L 189.83724350150877 105.5 L 190.86872029877782 98 C 191.732321199523 91.72064716071432 191.6641892726601 90.37793528392857 190.45009854802345 89.75 C 189.65254434661054 89.3375 189 88.1 189 87 C 189 85.9 189.45 84.775 190 84.5 C 190.55 84.225 191 82.65 191 81 C 191 78.56149409793267 191.51470292310495 77.87063865611202 193.75 77.30883684602775 C 195.2625 76.928697111343 198.075 76.62401362425896 200 76.63176243028545 C 201.925 76.63951123631193 208 77.01338952962587 213.5 77.4626030820942 C 222.26982199475233 78.17887997169015 223.68452670078716 78.07216806556299 225 76.59515214676662 C 226.26649951126652 75.17312409009087 228.52367090235674 74.92017523739382 239.5 74.97021645132715 C 247.73963707773112 75.00778105403465 253.38084234401617 75.48181262966312 254.90547846019112 76.26474180239703 C 256.4936884710476 77.08031735956486 257.94850504523174 79.36864133091564 259.18746185937664 83 C 260.2195395758235 86.025 261.21859518675296 89.4 261.4075854392198 90.5 C 261.5965756916866 91.6 262.07832027536085 93.625 262.47812895849586 95 C 262.99629662943136 96.78205371116373 262.5294586487244 98.69749291223773 260.8525269184616 101.66985549914455 L 258.5 105.83971099828909 L 260.2727761691199 109.16985549914455 C 261.24780306213586 111.00143497461505 263.1592378332893 114.075 264.52040899390533 116 C 266.04303956737783 118.15333966714958 266.6476830763169 119.88476009510012 266.0918908514035 120.5 C 265.59503471241146 121.05 260.53359994125805 121.82551686193048 254.8442580266181 122.22337080428994 C 246.95469558754516 122.7750854958959 244.07698972507583 123.36833625907985 242.71740526445387 124.72337080428994 C 241.73697815990352 125.70051686193048 240.94947815990352 127.0625 240.96740526445387 127.75 C 240.98533236900425 128.4375 240.325 129 239.5 129 C 238.675 129 236.9875 129.66237138602648 235.75 130.4719364133922 C 233.84826447905303 131.7160403075803 233.54683148725644 132.68344163828314 233.8025598436382 136.7219364133922 C 233.9689677576392 139.34987138602648 234.63253975145463 143.525 235.27716427433916 146 C 235.92178879722368 148.475 236.3481368675865 150.8375 236.22460443070096 151.25 C 236.10107199381542 151.6625 235.55 155.15 235 159 L 234 166 L 236.20740527362886 169.75 C 237.42147817412473 171.8125 238.77147817412475 173.6125 239.20740527362886 173.75 C 239.64333237313298 173.8875 238.65 175.35 237 177 C 234.55555555555554 179.44444444444446 233.16666666666666 180 229.5 180 C 226.83333333333334 180 223.57407407407408 179.1851851851852 221.5 178 C 219.575 176.9 216.875 176 215.5 176 C 214.125 176 212.97996359201855 176.3375 212.95547464893014 176.75 C 212.9309857058417 177.1625 213.62602211382313 178.175 214.5 179 C 215.37397788617687 179.825 216.07515890163998 181.85 216.05818003436246 183.5 C 216.04120116708495 185.15 216.24616475910352 187.5125 216.5136546832926 188.75 C 216.78114460748165 189.9875 217.675 191 218.5 191 C 219.65151515151516 191 220 189.72222222222223 220 185.5 C 220 180.91367517828039 220.29071482945287 180.00649584129425 221.75 180.03910265701396 C 222.7125 180.06060911837164 224.5125 181.18560911837164 225.75 182.53910265701396 L 228 185 L 226.5 188 C 225.675 189.65 225 191.225 225 191.5 C 225 191.775 226.6875 191.8875 228.75 191.75 C 231.8097014925373 191.54601990049753 232.54601990049753 191.08582089552237 232.75 189.25 C 232.8875 188.0125 233.7875 186.56232652264134 234.75 186.02739227253636 C 235.7125 185.49245802243135 236.8499999999996 185.37995802243134 237.2777777777769 185.77739227253636 C 237.70555555555418 186.17482652264135 238.0430555555542 187.7375 238.0277777777769 189.25 C 238.0052629633553 191.4789666278088 237.28949994701202 192.2891342345698 234.25 193.52604264429954 C 231.2727897937867 194.73760257382625 228.61665524905084 194.8921605325836 221.36097814328969 194.27604264429954 L 212.2219562865794 193.5 L 213.11097814328969 191.25 C 213.6546718317942 189.87398118797464 213.6115639164557 188.22312783291144 213 187 C 212.45 185.9 211.6625 184.97996359201855 211.25 184.95547464893014 C 210.8375 184.9309857058417 209.98592379405733 185.4934857058417 209.3576084312385 186.20547464893014 C 208.72929306841968 186.91746359201855 208.04481672470408 188.4 207.8365498896483 189.5 C 207.53380540192268 191.0990012831806 206.66499392587667 191.5 203.5033117040644 191.5 C 200.32475377118521 191.5 199.48436858897537 191.89246393003268 199.22070065168123 193.5 C 199.04027873988582 194.6 199.92931212934124 196.92959635470174 201.19633040602662 198.67688078822607 C 202.84655119078226 200.9526215112606 204.56370854612877 202.01633005738935 207.25 202.42688078822607 C 209.60699247768875 202.78710416715143 211.37146867261634 203.74293734523266 212 205 C 212.55 206.1 213.45 207 214 207 C 214.55 207 215.2229898563734 206.2125 215.49553301416313 205.25 C 215.90344750776057 203.8094292541716 217.00855198694487 203.53768405804843 221.74553301416313 203.71312497346548 L 227.5 203.92624994693094 L 223.5 203.0018799189029 C 221.3 202.49347640348748 218.19326940284535 201.722570165428 216.5961542285452 201.28875494543743 C 214.99903905424506 200.85493972544685 213.5304433462094 200.05 213.3326082106882 199.5 C 213.12691620959058 198.92815718600417 216.0828473877035 198.2145051650453 220.23645398214302 197.8332008797537 C 224.23140429196434 197.46646136361824 231.55 197.24146136361824 236.5 197.3332008797537 C 241.49548566067529 197.4257833923541 245.6266144378017 197.94494603770275 245.78456133344935 198.5 C 245.9410700668465 199.05 244.36607006684648 199.85595284664095 242.28456133344935 200.29100632586875 C 240.20305260005222 200.72605980509655 238.05 201.52105980509631 237.5 202.0576729925349 C 236.95 202.59428617997344 235.4875 203.02583333333249 234.25 203.01666666666614 C 233.0125 203.00749999999977 232.000258213993 203.3375 232.0005738088733 203.75 C 232.00088940375363 204.1625 233.46338940375364 204.5 235.2505738088733 204.5 C 237.81709941474875 204.5 238.5 204.91411406485742 238.5 206.4704670306682 C 238.5 207.56835421886504 237.39292762973116 209.00102020336584 236 209.70572522827118 C 234.625 210.40136037008529 230.9125 210.9771502062846 227.75 210.98525819760295 C 224.5875 210.99336618892133 222 211.45 222 212 C 222 212.55 222.7875 213.30356497837644 223.75 213.67458884083652 C 224.7125 214.04561270329663 225.8375 214.94561270329663 226.25 215.67458884083652 C 226.8270290895145 216.6943232333758 227.6342266717802 216.75418967082814 229.75 215.93416906714873 C 231.34305268712643 215.31674185565743 235.55013382484853 215.10638779877132 239.75 215.43416906714873 L 247 216 L 247 219 C 247 221.53333333333333 246.61111111111111 222 244.5 222 C 243.125 222 241.1 222.45 240 223 C 238.9 223.55 237.9904435252829 225.0125 237.97876338951758 226.25 C 237.96378757807776 227.83667390766104 238.9956281661606 229.01592029404142 241.47876338951758 230.25 C 243.4154435252829 231.2125 245.01157138824198 232.3375 245.02571419609325 232.75 C 245.03985700394455 233.1625 244.02735700394456 234.45016460132416 242.77571419609325 235.61147689183144 C 241.52407138824196 236.77278918233876 238.925 238.24274087129965 237 238.8780362006334 C 235.075 239.5133315299672 229.675 240.0079037707483 225 239.97708562459144 L 216.5 239.92105263157893 L 212.25 235.46052631578948 C 209.27942979767013 232.34280712510892 208.15052115266707 230.3979153893317 208.5 229 C 208.775 227.9 208.55 227 208 227 C 207.45 227 207 226.325 207 225.5 C 207 224.675 206.1 223.55 205 223 C 203.9 222.45 202.2125 220.49723945338528 201.25 218.6605321186339 C 200.2875 216.82382478388257 197.925 212.2113247838826 196 208.4105321186339 C 194.075 204.60973945338526 191.9375 200.9375 191.25 200.25 C 190.5625 199.5625 190 198.325 190 197.5 C 190 196.675 189.55 196 189 196 C 188.45 196 187.8448998115128 196.5625 187.65533291447287 197.25 C 187.46576601743297 197.9375 187.88172820345912 199.4 188.57969332786433 200.5 C 189.4310839210914 201.84180006966372 189.62678883822502 204.08202414442513 189.17436041339147 207.30712340281428 C 188.62463296372496 211.22581085240995 188.084162766953 212.19609772951964 186.25 212.55712340281428 C 184.92812337324912 212.81731372386085 184.01042724211155 213.72187373474932 184.0252782070005 214.75 C 184.03918122085076 215.7125 184.65433844807254 217.175 185.3922942674933 218 C 186.13025008691406 218.825 187.01887489376384 221.4125 187.3670160604928 223.75 C 187.8241774016089 226.8194865674729 187.6527901669038 228.00178437843664 186.75 228.0064239915843 C 186.0625 228.00995718695566 184.69827227040383 226.77245718695568 183.71838282311964 225.2564239915843 L 181.93676564623928 222.5 L 182.55368561116563 229.5 C 182.89299159187513 233.35 183.52302972585943 237.175 183.95377035335298 238 C 184.38451098084656 238.825 185.02112472622585 242.3125 185.36846756530701 245.75 C 185.76466793844912 249.67102162312867 185.62736345970058 252 185 252 C 184.45 252 184.02003640798145 250.9875 184.04452535106986 249.75 C 184.0690142941583 248.5125 183.37397788617687 246.825 182.5 246 C 181.62602211382313 245.175 180.924094957309 243.6 180.94016187441304 242.5 C 180.9562287915171 241.4 180.63876519949855 239.91796930362284 180.23468722548293 239.2065984524952 C 179.79573152256307 238.43382608658203 178.09115512959906 238.03129898075318 176 238.2065984524952 L 172.5 238.5 L 168.1562319777771 247 C 165.76715956555455 251.675 163.20612753225365 256.625 162.4650496815529 258 C 161.72397183085218 259.375 160.93599377107958 261.625 160.71398732650266 263 C 160.49198088192577 264.375 159.92796925426433 266.175 159.46062815392168 267 C 158.99328705357902 267.825 158.69846072335193 270.1875 158.8054585311948 272.25 C 158.91245633903765 274.3125 159.62146465594938 277.0125 160.3810325687764 278.25 C 161.14060048160337 279.4875 162.04060048160338 281.7375 162.3810325687764 283.25 L 163 286 L 154.25 290.12305625876525 C 149.4375 292.39073720108615 144.6 294.7171655626465 143.5 295.2928970622327 C 142.4 295.8686285618189 137.225 297.67065315934605 132 299.29739616784855 C 126.775 300.9241391763511 120.25 302.67621739102964 117.5 303.19090331157867 C 114.75 303.7055892321277 108.225 305.07683459261943 103 306.23811522378253 C 97.775 307.3993958549456 92.825 308.668387143499 92 309.0580958650122 C 91.175 309.4478045865254 89.15 310.3816593120622 87.5 311.1333285884272 C 85.85 311.88499786479224 83.7125 313.5125 82.75 314.75 C 81.7875 315.9875 79.2 317.9 77 319 C 74.8 320.1 72.4420365877844 320.6625 71.76008130618754 320.25 C 70.85231326806584 319.700910747625 70.78534301885752 319.88429934093404 71.51008130618754 320.9345897823173 C 72.32752128873139 322.119223483999 72.06441192507349 322.2177378633047 70 321.5 C 68.02092002090558 320.8119296501576 67.70836800836223 320.90094730058496 68.5 321.92721361655776 C 69.16898989891469 322.79448755979723 69.16134421289476 323.43485631920066 68.4769019555752 323.861803398875 C 67.91419803114157 324.21281152949376 66.67669803114156 325.7375 65.7269019555752 327.25 C 64.77710588000885 328.7625 63.98603920012698 331.2375 63.96897600028217 332.75 C 63.951912800437356 334.2625 64.6017504410863 336.85 65.41305964616869 338.5 C 66.33933408595293 340.3838105324945 67.13910471542314 346.336821025857 67.56261575492934 354.5 C 67.9335624096653 361.65 67.90910655396495 369.525 67.50826940892854 372 C 66.89146235442027 375.8085229345931 66.60434077678039 376.2370780996453 65.63973729988572 374.78895474515866 C 65.01288178494858 373.84787985499594 64.1625 373.0603798549959 63.75 373.03895474515866 C 63.337500000000006 373.0175296353214 62.99254831103936 374.0125 62.98344069119857 375.25 C 62.974333071357776 376.4875 63.448054156700195 378.85 64.0361542141817 380.5 C 64.62425427166322 382.15 64.96920596062387 384.85 64.80271352298314 386.5 L 64.5 389.5 L 61.36178711120064 384 C 59.635770022360994 380.975 57.918098449364116 377.375 57.54473917120758 376 C 57.171379893051046 374.625 56.33357569301076 372.24464237993493 55.68295206000694 370.7103163998554 C 55.03232842700312 369.1759904197758 54.1625 367.9384904197758 53.75 367.9603163998554 C 53.3375 367.98214237993494 53.17807961899495 369.4625 53.39573248665545 371.25 C 53.613385354315945 373.0375 54.06338535431594 375.5125 54.39573248665545 376.75 C 54.728079618994954 377.9875 54.6625 378.9858588068714 54.25 378.96857512638087 C 53.8375 378.9512914458903 52.62967203991739 377.71379144589037 51.56593786648308 376.21857512638087 C 50.50220369304878 374.7233588068714 49.37720369304878 371.5815668334393 49.06593786648308 369.2368151854207 C 48.75467203991739 366.8920635374021 48.1625 364.9795635374021 47.75 364.9868151854207 C 47.3375 364.9940668334393 46.84425145373502 366.9125 46.653892119411154 369.25 C 46.45470712422768 371.69587389368166 46.84115170132256 374.1367503904653 47.564243921816384 375 C 48.25529674746313 375.825 49.58851608488138 379.2 50.52695356052361 382.5 C 51.46539103616584 385.8 52.96823272508349 389.2965708946003 53.86660175811838 390.27015754355614 C 55.33283218885846 391.8591508404855 55.3464846414776 392.29570513809875 54 394.53573365739067 L 52.5 397.031152227669 L 54.657600836189545 400.7655761138345 C 56.11140689388454 403.2818562230397 56.484623615216734 404.82619322661066 55.8017592395081 405.5 C 55.244365901429056 406.05 55.117195525143764 407.175 55.519158403318556 408 L 56.25 409.5 L 57.10968722548293 408 C 57.78010572357419 406.8302399787644 57.972745711186754 406.9953599681466 57.98468722548293 408.75 C 57.99310925146732 409.9875 58.45 411 59 411 C 59.60615633194364 411 59.775956568744924 412.8707574232677 59.43113613490159 415.75 C 58.97459099999705 419.5621412236677 59.39202421323165 421.6846637174724 61.54532199411865 426.5 C 63.027011320144965 429.81344435236883 63.953364303638324 433.2835787305591 63.61418585921706 434.25 C 63.27638363664768 435.2125 61.9875 436.3882008182597 60.75 436.86266848502146 C 59.18155846097871 437.4640218567158 58.276147625601254 438.9028674965598 57.76100566388111 441.61266848502146 C 57.35455877901572 443.75070081825965 57.01705877901571 447.1875 57.01100566388111 449.25 C 57.00247221988426 452.1576315008235 56.60689470038431 452.9958737079301 55.25 452.9816308476906 C 53.79374060701945 452.9663449902097 53.61915818995769 453.5118632603886 54.209901278348454 456.2316308476906 L 54.91980255669691 459.5 L 54.209901278348454 460.2523736260422 C 53.819455575256804 460.6661791203654 52.70120791623259 460.21617912036544 51.724906480516864 459.2523736260422 C 50.74860504480114 458.288568131719 49.217812626166904 455.025 48.32314555021857 452 C 47.428478474270236 448.975 46.04147506827519 445.825 45.24091575911848 445 C 43.957827585641176 443.6777397614253 43.86146509351707 443.7962329357088 44.42768332858586 446 C 44.780964800949626 447.375 45.54811930149769 450.3 46.13247110758155 452.5 C 46.71682291366541 454.7 47.60106992603933 457.2875 48.09746446841247 458.25 C 48.59385901078561 459.2125 49 460.9 49 462 C 49 463.1 48.55 464 48 464 C 47.45 464 46.775 462.875 46.5 461.5 C 46.225 460.125 45.55 459 45 459 C 44.45 459 44.00551022564102 459.3375 44.01224494586893 459.75 C 44.01897966609684 460.1625 45.0917702612893 463.65 46.39622404629661 467.5 C 47.70067783130392 471.35 49.045167605662904 475.7375 49.38397910042768 477.25 L 50 480 L 69 480 L 88 480 L 88.37305066681368 477.75 L 88.74610133362737 475.5 L 89.37305066681368 477.75 L 90 480 L 108.5 480 C 122.63756263790754 480 126.99813005983546 479.70524071877753 126.99207005392336 478.75 C 126.98770858358121 478.0625 125.84304254957952 472.1 124.4483677561418 465.5 C 123.0536929627041 458.9 121.62943270372477 453.05 121.28334495840997 452.5 C 120.93725721309515 451.95 120.29287142499417 448.575 119.85137654040778 445 C 119.40988165582141 441.425 118.75473276655231 436.475 118.39549011980978 434 L 117.74232167118699 429.5 L 120.62116083559349 428.3301340599005 C 122.20452237601707 427.68670779284577 125.4125 426.8992077928458 127.75 426.5801340599005 C 130.59794057980596 426.19138409968446 132.28495021644832 426.41237041770415 132.8637568440129 427.25 C 133.33882310822 427.9375 134.0184243707863 432.55 134.37398187193807 437.5 C 134.72953937308984 442.45 135.65310749081738 449.425 136.4263554668882 453 C 137.19960344295902 456.575 138.3200021803927 463.4375 138.91613043896302 468.25 C 139.51225869753335 473.0625 139.775 477.675 139.5 478.5 C 139.16666666666666 479.5 139.66666666666666 480 141 480 C 142.68777876681938 480 142.92539138178842 479.4926404960815 142.52207851175558 476.75 C 142.25922169322115 474.9625 141.52280804326372 462.925 140.88560373407242 450 C 140.24839942488111 437.075 140.0134640945911 425.9375 140.36352522231684 425.25 C 140.79265880348132 424.4072062314736 143.60611988143103 424 149 424 L 157 424 L 159.75 428.0345017686983 C 161.2625 430.25347774148236 165.3489748186714 435.99097774148237 168.83105515260308 440.7845017686983 L 175.16211030520617 449.5 L 174.83105515260308 436.5 L 174.5 423.5 L 182.5 422.9076599477535 C 186.9 422.5818729190178 190.95 422.4719946920539 191.5 422.6634861100558 C 192.05 422.8549775280577 192.8384904092386 429.1965305515686 193.25220090941912 436.75582616230236 C 193.66591140959966 444.3151217730361 194.00341140959966 457.1375 194.00220090941912 465.25 L 194 480 L 197 480 L 200 480 L 199.5 453 C 199.21753304156087 437.74678424428663 199.39348515147262 425.238634354537 199.90442617050093 424.25 L 200.80885234100185 422.5 L 217.15442617050093 422.8749675479637 C 230.30866809247155 423.17672592550696 234.18334472639876 423.5970184741915 237 425.02764958905914 C 238.925 426.0053925602816 241.42942190022626 427.86165716369794 242.56538200050284 429.15268204109543 C 243.70134210077939 430.443706918493 245.31976672241558 432.625 246.16188115969442 434 C 247.00399559697323 435.375 248.50045674296464 438.975 249.48735037300867 442 C 250.87732898150685 446.2605253116483 251.13030903935726 449.07751323972036 250.6099149007502 454.5 C 250.24043176096404 458.35 248.97421956484655 463.525 247.7961100204891 466 C 246.61800047613167 468.475 244.79776453735187 471.625 243.75114126764507 473 C 242.70451799793827 474.375 240.1948471478381 476.51019448573055 238.17409493408908 477.7448766349568 L 234.5 479.98975326991365 L 245 479.9956351402263 L 255.5 480.0015170105389 L 255.25 451.00075850526946 L 255 422 L 264 422 L 273 422 L 273 451 C 273 473.7114229512975 273.2710593555475 479.9275907143874 274.25 479.66608196631717 C 274.9375 479.4824270477916 275.76969668970827 477.7949270477916 276.0993259771295 475.91608196631717 C 276.4289552645508 474.03723688484274 277.49451621556096 469.8 278.46723920159667 466.5 C 279.4399621876324 463.2 282.020888872109 456.675 284.202631833767 452 C 286.384374795425 447.325 289.12237671382917 441.25 290.28708054133176 438.5 C 291.45178436883435 435.75 293.5511609946494 431.25 294.95236193203186 428.5 L 297.5 423.5 L 306 423.8606349200978 C 310.675 424.0589841261516 314.95 424.56254669492233 315.5 424.97966285069947 C 316.05 425.39677900647655 317.3275826409186 428.15949329243256 318.33907253537467 431.11902793060165 C 319.35056242983075 434.07856256877074 320.5443428464897 438.3 320.991917905728 440.5 C 321.43949296496623 442.7 323.21916703741897 451.025 324.9467491778452 459 C 326.67433131827147 466.975 328.40555090161246 474.97076611853925 328.7939038074919 476.76836915230945 L 329.5 480.03673830461884 L 359.5 480.0171742365025 L 389.5 479.9976101683862 L 389.4230647301111 476.2488050841931 C 389.3807503316722 474.1869622878869 390.3484825656088 469.35 391.57358080552575 465.5 C 392.7986790454427 461.65 394.7156052485132 456.475 395.8334168123491 454 C 396.951228376185 451.525 398.60198370628774 447.025 399.50176199035525 444 C 400.4015402744228 440.975 402.08630971673614 436.475 403.2456940843849 434 C 404.4050784520337 431.525 405.9174205797842 427.25 406.6064543682749 424.5 C 407.2954881567656 421.75 408.58966654804595 417.25 409.4824063488979 414.5 C 410.3751461497498 411.75 411.7568164579599 408.2625 412.55278481158706 406.75 C 413.3487531652142 405.2375 414.010943306761 402.5375 414.02431845946893 400.75 C 414.03769361217684 398.9625 415.04977699600846 395.475 416.2733926457614 393 C 417.49700829551443 390.525 418.9485649887534 388.1910808897107 419.49907418629255 387.81351308824605 C 420.15265961252544 387.36525025529926 420.0779982655603 386.3241929180287 419.2839236533905 384.81351308824605 C 418.505204800203 383.3320466787264 417.87582358115174 375.2171601795503 417.5339236533905 362.25 C 417.13480890162674 347.11286630702074 416.6212691624429 341.2425383248858 415.5 339 C 414.675 337.35 413.8081214456445 336.1125 413.5736032125433 336.25 C 413.33908497944213 336.3875 412.9079190582042 346.625 412.61545672090347 359 C 412.29106960920655 372.7258374678201 411.4636638535911 385.00966501287195 410.4937010054069 390.5 C 409.6191976991845 395.45 407.97723339759864 402.875 406.84489144632715 407 C 405.71254949505567 411.125 404.27171812138465 415.4807245686206 403.6430439492804 416.6793879302679 C 403.01436977717617 417.87805129191526 401.9375 418.6655512919153 401.25 418.4293879302679 C 400.5625 418.19322456862056 399.9925000000012 418.3375 399.983333333336 418.75 C 399.97416666667084 419.1625 400.37265354519195 419.95 400.86885973004956 420.5 C 401.410880733702 421.10078161277727 401.16641700350823 423.89531032333633 400.2565038415986 427.5 C 399.4235019180929 430.8 398.3500150395718 433.6125 397.87097744488506 433.75 C 397.39193985019824 433.8875 397 434.675 397 435.5 C 397 436.325 396.2125 437.03162836817467 395.25 437.07028526261035 L 393.5 437.14057052522077 L 395.16948545561866 437.82028526261035 L 396.8389709112373 438.5 L 395.16948545561866 440.70901053024363 C 394.25126845502837 441.9239663218777 393.15000000000117 442.5989663218777 392.72222222222484 442.20901053024363 C 392.2944444444485 441.8190547386096 391.96383519298115 439.7 391.9875349967419 437.5 C 392.0172383840908 434.7427007064139 392.2997118299967 433.9660127649052 392.89675938020923 435 C 393.60303854082156 436.2231582496682 393.87705414762024 436.08473737450225 394.3814466056922 434.25 C 394.72165097256146 433.0125 395.45 432.225 396 432.5 C 396.55 432.775 397 432.1 397 431 C 397 429.6666666666667 396.5 429.1666666666667 395.5 429.5 C 394.675 429.775 393.98894337294774 429.4375 393.97542971766165 428.75 C 393.96191606237556 428.0625 394.5793608436753 425.925 395.34752923166116 424 C 396.11569761964694 422.075 397.3642542466992 417.45049879127043 398.1220995139995 413.7233306472677 C 398.87994478129974 409.99616250326494 399.95 407.1064100764401 400.5 407.30165858765696 C 401.05 407.4969070988738 401.6125 408.63390830760335 401.75 409.8283279403893 C 401.9082674053454 411.2031475489321 401.4496044320725 412 400.5 412 C 399.675 412 399 412.675 399 413.5 C 399 414.3888888888889 399.6111111111111 414.7962962962963 400.5 414.5 C 401.325 414.225 402.225 414 402.5 414 C 402.775 414 403 411.975 403 409.5 C 403 406.3888888888889 402.537037037037 404.84567901234567 401.5 404.5 C 400.1701162229964 404.05670540766545 400.1760732429283 403.2911824041816 401.5525260303835 397.75 C 402.4064153470944 394.3125 403.5511776371159 389.475 404.09644223043125 387 C 404.6417068237466 384.525 405.0516411188551 378.45 405.0074073306724 373.5 C 404.96317354248964 368.55 404.93101766433 360.225 404.93594982365096 355 C 404.940881982972 349.775 405.0698109741909 342.02707137066636 405.2224586930264 337.78238082370297 C 405.40421708791837 332.72820676519154 406.01766841371864 329.44964014497333 407 328.28238082370297 C 407.825 327.30207137066634 408.48855323641095 325.6 408.4745627475799 324.5 C 408.45687151315326 323.10902945534616 407.8478420578071 322.56587328561966 406.4745627475799 322.71632216649425 C 404.9922667381564 322.8787143135847 404.6576281283749 322.50475805003236 405.13227231526025 321.21632216649425 C 405.48649724455527 320.254767969987 404.986980574233 318.4006027179491 403.99638477379193 317 L 402.22822491706336 314.5 L 400.8641124585317 316.7533165959725 C 400.11385060633927 317.99264072375735 398.9375 319.00514072375734 398.25 319.0033165959725 C 397.505787608045 319.00134199451503 396.76615414372105 320.9219929105711 396.42207496644977 323.75 C 396.1042161979971 326.3625 395.20421619799714 329.5125 394.42207496644977 330.75 C 393.6399337349024 331.9875 392.4375 332.9874512565254 391.75 332.9721139033897 C 391.0625 332.956776550254 389.0375 331.831776550254 387.25 330.4721139033897 C 385.4625 329.1124512565254 383.2125 327.99310925146733 382.25 327.98468722548296 C 380.73727358171703 327.9714506320263 380.7033773557574 327.82307570082025 382 326.89035498785415 C 383.26294365726454 325.9818611298528 383.2234342668087 325.9052623424904 381.75 326.4056677623712 C 380.6516330506443 326.77869341194156 379.3483669493557 326.2116833218425 378.25 324.88292784503244 C 377.2875 323.7185381598003 376.425 321.80603815980027 376.3333333333333 320.63292784503244 C 376.2416666666666 319.4598175302646 376.12916666666666 318.1625 376.0833333333333 317.75 C 376.03749999999997 317.3375 375.2125 317.52220867033526 374.25 318.1604637118561 C 372.84824788642845 319.08999654660886 371.8035042271431 318.89709220163365 369 317.19108926089024 C 367.075 316.01967827133814 364.15 315.0447920403854 362.5 315.02467541432856 C 360.85 315.0045587882717 357.5662516660425 314.20327729120635 355.20278148009436 313.2440498652944 C 352.8393112941462 312.2848224393825 350.70181129414624 310.7125 350.45278148009436 309.75 C 350.2037516660425 308.7875 349.55 308 349 308 C 348.45 308 348 308.45 348 309 C 348 309.5857134161037 346.65356860233715 309.7492104135549 344.75 309.3946470964943 C 342.9625 309.0617029995661 341.05 308.3792029995664 340.5 307.87798042982826 C 339.95 307.3767578600901 338.9375 306.9741666666677 338.25 306.98333333333403 C 337.5625 306.9925000000003 336.325 306.325 335.5 305.5 C 334.675 304.675 332.875 304 331.5 304 C 330.125 304 329 303.55 329 303 C 329 302.45 326.975 301.55 324.5 301 C 321.6111111111111 300.358024691358 320 299.462962962963 320 298.5 C 320 297.39313185139133 319.2792582724493 297.1482974886885 317.25 297.56583111301086 C 315.3273686127744 297.9614255340084 314.2743540146979 297.6605642202723 313.75 296.56583111301086 C 313.19957452461085 295.4166666666667 313.53219873229557 295 315 295 C 316.68472955699747 295 316.88973267722395 294.5665031408715 316.3004905773855 292.25 C 315.91576039494754 290.7375 315.57826039494756 288.03890235271894 315.5504905773855 286.25311633937537 C 315.52272075982347 284.4673303260318 315.1625 283.0048303260318 314.75 283.00311633937537 C 314.3375 283.0014023527189 314 281.425 314 279.5 C 314 277.08071204173865 313.3814261803768 275.61403141366475 311.9966834040288 274.75 C 310.8948592762446 274.0625 309.99968990029504 272.825 310.0074181241409 272 C 310.01514634798673 271.175 307.20413881617384 264.35668515493586 303.76073472011217 256.84818923319085 L 297.5 243.19637846638167 L 294.5 242.58593433123005 C 292.85 242.25019005689666 289.925 241.9741141534281 288 241.97243232352218 C 286.075 241.97075049361624 283.9921266344057 241.63876519949858 283.37139252090157 241.23468722548296 C 282.5774160640958 240.7178340493766 282.45294664490564 237.53500970452555 282.9515954666577 230.5 C 283.3414412003277 225 283.286814565922 219.7125 282.8302029457561 218.75 C 282.28486134202194 217.60046444196172 282.91230393356784 214.5123615975871 284.6588283538119 209.75 C 286.12118394840843 205.7625 287.62065712873925 202.05 287.9909909767693 201.5 C 288.36132482479934 200.95 289.2322268504856 198.025 289.9263288116276 195 L 291.18833237734043 189.5 L 297.3441661886702 188 L 303.5 186.5 L 303.5 183.33674340199417 C 303.5 181.59695227309098 303.8499999999997 179.796952273091 304.27777777777715 179.33674340199417 C 304.70555555555455 178.87653453089737 305.0370034719582 177.6 305.01432870311857 176.5 C 304.99165393427893 175.4 305.9518292730474 172.475 307.14805167815956 170 C 308.3442740832717 167.525 309.48006307262153 164.15 309.672027210048 162.5 C 309.8639913474745 160.85 310.0398499094333 154.775 310.0628240144009 149 C 310.0857981193685 143.225 310.5310612136151 137.9375 311.052297557171 137.25 C 311.57353390072694 136.5625 311.775 135.325 311.5 134.5 C 311.1543424698037 133.46302740941104 310.30545888588347 133.2083124830809 308.75 133.67483850474167 C 307.5125 134.0459996823496 305.50172055922917 135.5084996823496 304.28160124273154 136.92483850474167 C 303.06148192623385 138.34117732713375 302.04898192623386 138.9375 302.03160124273154 138.25 C 302.01422055922916 137.5625 302.675 136.325 303.5 135.5 L 305 134 L 303.5 134 C 302.675 134 301.7438313395301 133.2125 301.4307363100669 132.25 C 301.11764128060366 131.2875 300.46725695482417 121.5 299.98543780833467 110.5 C 299.50361866184517 99.5 298.409787322315 86.7875 297.5547014982678 82.25 C 296.6996156742205 77.7125 295.4798499146381 72.9875 294.84411092141806 71.75 C 294.208371928198 70.5125 292.6459206716726 68.15 291.3719970180284 66.5 C 290.09807336438416 64.85 289.043223449746 62.7125 289.02788609661036 61.75 C 289.01254874347467 60.7875 287.7625 59.08443656917296 286.25 57.96541459816213 C 284.7375 56.84639262715129 282.9375 55.94639262715129 282.25 55.96541459816213 C 281.5625 55.984436569172956 279.95787518966586 53.8625 278.6841670881463 51.25 C 276.98786150056264 47.77071118784956 274.78083680587656 45.4250977013712 270.4341670881463 42.48194619886254 C 267.17037518966583 40.27201660823693 262.25 37.64622403144237 259.5 36.64685158376351 C 256.75 35.64747913608464 252.7 34.1082139097749 250.5 33.22626219196408 C 247.63369621133083 32.07719785097115 242.67377528675848 31.5670175823855 233 31.426202304715225 Z " class="odd" fill="#000000"></path><path d="M 202.25 130.9966834040283 L 206 131 L 205 133 C 204.25 134.5 203 135 200 135 L 196 135 L 197.25 132.9966834040283 C 198.14060481130443 131.56935268487757 199.57818556608674 130.99432038296464 202.25 130.9966834040283 Z " class="even" fill="#ffffff"></path><path d="M 253.13760538048342 138.82098266224403 C 253.4882883397493 139.19444219800982 254.12757831350214 140.625 254.55824976660085 142 L 255.34128877223492 144.5 L 252.92064438611746 143.67756616851315 C 251.58928997375287 143.2252275611954 249.9375 142.77522756119538 249.25 142.67756616851315 C 248.5625 142.57990477583093 248 142.3875 248 142.25 C 248 142.1125 249.0125 141.13194219800982 250.25 140.07098266224403 C 251.4875 139.01002312647827 252.78692242121753 138.44752312647827 253.13760538048342 138.82098266224403 Z " class="even" fill="#ffffff"></path><path d="M 211.15 140.25 C 211.7825 140.3875 212.47843213802255 140.95 212.69651586227232 141.5 C 212.9145995865221 142.05 212.2845995865221 142.84228902819925 211.29651586227232 143.26064228488724 C 210.30843213802254 143.67899554157523 209.275 143.7959128447858 209 143.52045851424407 C 208.725 143.24500418370235 208.8375 142.34021515550307 209.25 141.50981622935683 C 209.6625 140.67941730321058 210.5175 140.1125 211.15 140.25 Z " class="even" fill="#ffffff"></path><path d="M 198.5496031746032 141 C 198.88244047619048 141.275 198.93046679197994 142.175 198.656328320802 143 C 198.30916288864293 144.04476938351837 198.12550503410998 143.89302584469115 198.05116959064327 142.5 C 197.99247076023394 141.4 198.21676587301587 140.725 198.5496031746032 141 Z " class="even" fill="#ffffff"></path><path d="M 222.70629299315493 142.5 C 222.92452005736052 143.6 222.85487884198477 144.725 222.55153473676438 145 C 222.24819063154396 145.275 221.6625 145.16691730321057 221.25 144.75981622935683 C 220.8375 144.3527151555031 220.90714121537576 143.2277151555031 221.40475825639055 142.25981622935683 L 222.3095165127811 140.5 L 222.70629299315493 142.5 Z " class="even" fill="#ffffff"></path><path d="M 243.75 144.0166409442631 C 244.1625 144.0257934636078 246.17589075091422 144.8132934636078 248.22420166869827 145.7666409442631 C 250.41520104688652 146.78640006343667 251.9590241533893 148.22045078303464 251.97420166869827 149.25 C 251.99024282987818 150.3381336368832 253.22918038864543 151.38447223577677 255.25 152.01655930880207 C 257.0375 152.57566692864322 259.625 153.01010349781615 261 152.98197390696416 C 262.375 152.95384431611217 264.85 153.95313906211595 266.5 155.20262889808367 C 268.15 156.4521187340514 271.525 158.43702307920898 274 159.6135274428783 L 278.5 161.75262628591344 L 275 163.70655610601187 L 271.5 165.66048592611034 L 269 175.96331969898506 C 267.625 181.6298782740662 265.9370611469826 186.54376894069136 265.2490247710724 186.8830767359299 C 264.56098839516227 187.22238453116844 263.2109883951623 186.72387519315023 262.2490247710724 185.7752782070005 C 261.2870611469826 184.8266812208508 259.4875 184.0391812208508 258.25 184.0252782070005 C 257.0125 184.01137519315023 256 183.55 256 183 C 256 182.45 255.4375 181.99310925146733 254.75 181.98468722548293 C 254.0625 181.97626519949853 252.9170554363842 181.63876519949855 252.20456763640934 181.23468722548293 C 251.1914719074242 180.6601234649994 251.16023738271406 179.9551304982397 252.06125568460612 178 C 252.6949219110892 176.625 252.95633594488802 173.925 252.64217575971463 172 C 252.3280155745412 170.075 250.88991021166328 167.15 249.44638606443033 165.5 C 247.750071768148 163.56105177095162 247.23431803538247 162.32315803817474 247.98815260150621 162 C 248.6296483441309 161.725 249.14466502542183 160.15 249.1326341154861 158.5 C 249.12060320555034 156.85 248.42221398683338 154.825 247.58065807389286 154 C 246.73910216095234 153.175 246.0391812208508 151.9375 246.0252782070005 151.25 C 246.01137519315023 150.5625 246.675 150 247.5 150 C 248.325 150 249 149.55 249 149 C 249 148.45 247.6491572812563 147.4375 245.99812729168065 146.75 C 244.34709730210497 146.0625 242.99709730210498 145.1625 242.99812729168065 144.75 C 242.9991572812563 144.3375 243.3375 144.0074884249184 243.75 144.0166409442631 Z " class="even" fill="#ffffff"></path><path d="M 305.5 146 C 305.775 146 306.45 148.925 307 152.5 L 308 159 L 307 164 C 306.45 166.75 305.55 169.225 305 169.5 C 304.37008327817665 169.81495836091167 304.03542257838376 166.94681295504256 304.09571515513557 161.75 C 304.1483584904601 157.2125 303.88488266814153 152.825 303.51021332776094 152 C 303.13554398738034 151.175 303.31747216756935 149.4875 303.9144981726254 148.25 C 304.5115241776814 147.0125 305.225 146 305.5 146 Z " class="even" fill="#ffffff"></path><path d="M 220 156 C 219.45 156 219 156.9 219 158 C 219 159.1 218.775 160.675 218.5 161.5 C 218.2037037037037 162.38888888888889 218.61111111111111 163 219.5 163 C 220.54761904761904 163 221 161.94444444444446 221 159.5 C 221 157.575 220.55 156 220 156 Z " class="odd" fill="#000000"></path><path d="M 241.75 166.98333333333335 C 242.1625 166.97416666666666 243.07 167.53666666666666 243.76666666666665 168.23333333333335 C 244.46333333333334 168.93 245.02583333333334 170.2875 245.01666666666665 171.25 C 245.0075 172.2125 244.55 173 244 173 C 243.45 173 242.55 172.1 242 171 C 241.45 169.9 241 168.55 241 168 C 241 167.45 241.3375 166.9925 241.75 166.98333333333335 Z " class="even" fill="#ffffff"></path><path d="M 183.25 180.0166409442631 C 182.5453552608509 180.00726018119954 182.00668072171288 181.19978157387197 182.01531277451704 182.75 C 182.02373480050144 184.2625 182.36123480050145 185.9828236818086 182.76531277451704 186.57294151513025 C 183.16939074853266 187.1630593484519 184.2875 187.9505593484519 185.25 188.32294151513025 C 186.3735938163468 188.75764935907586 187.1789731953295 188.46308041401156 187.5 187.5 C 187.775 186.675 188.9 186 190 186 C 191.1 186 191.98839075091422 185.4375 191.97420166869827 184.75 C 191.96001258648232 184.0625 190.27251258648232 182.7199884249184 188.22420166869827 181.7666409442631 C 186.17589075091422 180.8132934636078 183.9375 180.0257934636078 183.25 180.0166409442631 Z " class="odd" fill="#000000"></path><path d="M 266 196 C 266.55 196 267 196.675 267 197.5 C 267 198.325 266.4375 200.13796457076967 265.75 201.52881015726592 C 264.9156278992891 203.2167850718394 263.6687442014217 204.06284565292194 262 204.0733355083358 C 260.625 204.08197886492798 258.9375 203.39401429415832 258.25 202.54452535106986 C 257.2343964623546 201.2896250226462 257.28311646637343 200.85936212258724 258.50981622935683 200.25 C 259.3402151555031 199.8375 260.35271515550306 199.82308090482942 260.75981622935683 200.21795756628762 C 261.1669173032106 200.61283422774585 262.2875 199.82533422774583 263.25 198.46795756628762 C 264.2125 197.11058090482945 265.45 196 266 196 Z " class="even" fill="#ffffff"></path><path d="M 199 253.94120784727428 C 199.825 253.92456564509655 201.175 254.61878738225627 202 255.48392281874033 C 202.825 256.34905825522435 205.42742985832152 257.3815946632058 207.7831774629367 257.7784481698102 C 210.13892506755187 258.17530167641456 211.86023205387008 258.95 211.60830409919936 259.5 C 211.3563761445286 260.05 212.0164462862071 261.2875 213.07512663626267 262.25 C 214.1338069863182 263.2125 215.3375 264.014122457563 215.75 264.03138323902886 C 216.1625 264.04864402049475 219.2 265.4149858184384 222.5 267.0676983455703 C 225.8 268.7204108727022 229.3031481418389 270.8437884151392 230.2847736485309 271.78631510654145 L 232.06954729706177 273.5 L 235.5347736485309 271.75 C 237.4406481418389 270.7875 240.35 270 242 270 C 243.65 270 245.225 270.45 245.5 271 C 245.775 271.55 247.0125 271.7730053012647 248.25 271.4955673361437 C 249.60981835722149 271.19070653779085 251.2202762185157 271.68525189489003 252.3205514625103 272.7455673361437 C 253.67567726803875 274.0514776747481 253.99618048671417 275.3947782213146 253.57422666228877 278 C 253.26244471778622 279.925 252.74584681169983 283.075 252.42623131543007 285 C 252.04006848889117 287.3258053810385 250.87696922925443 289.17096835369233 248.95930399095568 290.5 C 247.3721094587645 291.6 244.29512054769242 295.2 242.12155085523995 298.5 C 239.94798116278744 301.8 237.68144461890063 305.7375 237.0848029799359 307.25 C 236.48816134097115 308.7625 235.6625 309.9948371280036 235.25 309.9885269511192 C 234.8375 309.98221677423476 233.6 308.06971677423473 232.5 305.7385269511192 C 231.4 303.40733712800363 228.7 299.5378543768608 226.5 297.1396763930241 C 224.3 294.7414984091874 220.7 291.9329440758506 218.5 290.89844454116474 C 216.3 289.8639450064788 212.025 288.71865012903146 209 288.353344813504 C 204.78676150624267 287.84454533669265 202.85661924687867 287.02364573899126 200.75 284.84457666536343 C 198.73911271872592 282.7645319246404 198.16991114793052 281.3952714119515 198.63218457073015 279.75 C 198.97988608463172 278.5125 199.6548860846317 277.3875 200.13218457073015 277.25 C 200.60948305682857 277.1125 200.98117588601548 276.4375 200.95816863558997 275.75 C 200.93516138516443 275.0625 199.67177003407946 273.15 198.1506322998456 271.5 L 195.38492732851128 268.5 L 196.44246366425563 261.2357331983442 C 197.21318166525967 255.9416350204396 197.90682053899138 253.96325986376718 199 253.94120784727428 Z " class="even" fill="#ffffff"></path><path d="M 149.25 329.1498320911797 C 150.2125 329.0674244410309 151.9 329.9 153 331 C 154.1 332.1 155.675 334.125 156.5 335.5 C 157.47807463370413 337.1301243895069 157.69975398710685 338.60891292734516 157.13710072661152 339.75 C 156.66250612624785 340.7125 155.98750612624787 343.4125 155.63710072661152 345.75 C 155.28669532697518 348.0875 154.60851371476997 350.7875 154.1300304772666 351.75 C 153.6515472397632 352.7125 152.26049532558014 355.75 151.0388040013042 358.5 L 148.81754704807523 363.5 L 151.6587735240376 365.6640189072965 L 154.5 367.82803781459296 L 157.26829851643419 365.6640189072965 C 158.79086270047299 364.4738085082834 160.70336270047298 361.8125 161.51829851643419 359.75 C 162.3332343323954 357.6875 163 353.975 163 351.5 C 163 348.1825990547118 162.36991984839224 346.27730057767616 160.60243281868182 344.25 C 158.784131043841 342.1644151122126 158.36132142697844 340.8292283350147 158.85243281868182 338.7236903634436 C 159.2085947684068 337.1967200633376 159.95 336.10704912365367 160.5 336.3021993863682 C 161.05 336.49734964908276 162.9625 338.53418898553315 164.75 340.8285090229246 C 167.31718652191475 344.1235845345052 168 345.9454340465796 168 349.5 C 168 351.975 167.1572489702035 355.9125 166.12721993378557 358.25 C 165.09719089736762 360.5875 162.39719089736764 363.9625 160.12721993378557 365.75 C 156.43173422282086 368.66002872473996 155.3200574494799 369 149.5 369 C 145.925 369 141.875 369.45 140.5 370 C 139.125 370.55 138 371.45 138 372 C 138 372.55 138.3375 372.8100100738024 138.75 372.5778001640054 C 139.1625 372.3455902542084 144 371.8463227557945 149.5 371.4683168341968 C 155 371.0903109125991 162.2 370.5807403387002 165.5 370.3359377810881 C 169.06139771652 370.0717440630039 171.90643371391334 370.32623253153815 172.5 370.96208777756334 C 173.1756460576166 371.6858706140586 173.09455757202076 372.02792743429353 172.25 372.01666666666665 C 171.5625 372.0075 170.775 372.675 170.5 373.5 C 170.13636363636363 374.59090909090907 170.54545454545453 374.8636363636364 172 374.5 C 173.33333333333334 374.1666666666667 174.33333333333334 374.6666666666667 175 376 L 176 378 L 175 378.5 C 174.45 378.775 170.2875 379.4465848333347 165.75 379.9924107407439 C 161.2125 380.53823664815303 157.05 380.980736648153 156.5 380.9757440740773 C 155.95 380.9707515000015 156.07000000000002 381.53666666666675 156.7666666666667 382.23333333333335 C 157.4633333333334 382.93 158.0258333333334 384.2875 158.0166666666667 385.25 C 158.00750000000002 386.2125 156.83620626929758 387.7875 155.41379170955014 388.75 C 153.15379579807154 390.27926307586756 152.72808887295898 390.3107969221722 152.03879170955014 389 C 151.59210980017576 388.15057060571326 151.02220659529527 387.93371373714217 150.7247839757032 388.5 C 150.43591516233997 389.05 147.90466516233997 389.6125 145.0997839757032 389.75 C 142.29490278906644 389.8875 139.2125 390.51720303666946 138.25 391.1493400814877 C 137.2875 391.78147712630596 135.6 392.0034154979 134.5 391.6425364628078 L 132.5 390.98639276264026 L 134.5 388.9757521639036 L 136.5 386.96511156516704 L 134.5 385.44673672628323 C 132.9968304437114 384.3055493098608 131.00950866886586 384.07030002420174 126.5 384.49973644223564 C 123.2 384.81399244739555 119.60021789901184 385.1676110227307 118.5004842200263 385.2855554985359 C 117.08927550821834 385.4369051161265 116.4272697783159 384.83799427009757 116.2504842200263 383.25 C 116.07895552368701 381.70922602740063 116.63042313546723 380.8423942161332 118 380.5 C 119.33333333333333 380.1666666666667 120 379.1666666666667 120 377.5 C 120 375.54550105257414 120.60005115783153 374.9044954558231 122.75 374.5623081581317 C 124.2625 374.3215776451042 128.0875 373.8715776451042 131.25 373.5623081581317 C 135.08550210413406 373.18722396270806 136.919238516504 372.58380480524653 136.75744108619568 371.75 C 136.6240336836033 371.0625 137.7490336836033 368.8125 139.25744108619568 366.75 L 142 363 L 140.0000618353921 359.25 C 138.9000958448578 357.1875 137.3304368387817 353.025 136.51193071077864 350 C 135.69342458277558 346.975 135.03261272696625 343.15 135.04345992009127 341.5 C 135.05607718218693 339.5807493498196 136.31267566385745 336.9689384210889 138.53159104470475 334.25 C 140.76755996139795 331.51016510208865 142.97716565429266 329.87557379864194 144.75 329.6498320911797 C 146.2625 329.4572397413285 148.2875 329.2322397413285 149.25 329.1498320911797 Z " class="even" fill="#ffffff"></path><path d="M 144.4 331.2321428571429 C 143.905 331.08482142857144 142.93 331.53482142857143 142.23333333333335 332.2321428571429 C 141.53666666666666 332.9294642857143 140.97416666666666 334.0625 140.98333333333335 334.75 L 141 336 L 143.53149789597495 334.75 C 144.92382173876118 334.0625 145.89132173876118 333.05 145.68149789597496 332.5 C 145.47167405318874 331.95 144.895 331.3794642857143 144.4 331.2321428571429 Z " class="odd" fill="#000000"></path><path d="M 52.25 336.5224186674561 C 51.8375 336.259748934557 51.15 336.37224893455704 50.72222222222222 336.7724186674561 C 50.294444444444444 337.17258840035527 49.956944444444446 338.7375 49.97222222222222 340.25 C 49.9875 341.7625 51.0125 344.6875 52.25 346.75 L 54.5 350.5 L 55.04109699464827 346.5 C 55.380349866775376 343.99211046830794 55.11000862328902 341.94045857438454 54.31637520164878 341 C 53.62017486844251 340.175 53.039181220850786 338.9375 53.02527820700051 338.25 C 53.01137519315023 337.5625 52.6625 336.7850884003553 52.25 336.5224186674561 Z " class="odd" fill="#000000"></path><path d="M 148.5 336 C 146.45034550589827 336 145.99186221854967 336.4953800564881 145.95482478816962 338.75 L 145.90964957633926 341.5 L 148.20482478816962 339.861904092872 C 149.46717115467632 338.9609513439516 150.6125 337.72345134395164 150.75 337.111904092872 C 150.8875 336.5003568417924 149.875 336 148.5 336 Z " class="odd" fill="#000000"></path><path d="M 132.4776496407643 339.25 C 132.74035694318465 339.3875 133.17936938299772 340.625 133.45323284034885 342 C 133.8068754413144 343.77555114884905 133.22739497648905 345.22444885115095 131.45350413657394 347 C 130.00977386873186 348.445081556325 128.70025809653467 351.18786950988 128.35014628922406 353.5 C 128.01701371760896 355.7 128.25194929596373 359.1875 128.87222535223466 361.25 C 129.4925014085056 363.3125 131.2375 366.10914037285914 132.75 367.4647563841315 C 134.2625 368.8203723954038 135.17372789927958 370.2828723954038 134.77495088728799 370.7147563841315 C 134.3761738752964 371.14664037285917 132.46367387529637 370.2625 130.52495088728799 368.75 C 128.5862278992796 367.2375 126.31793792054496 364.9875 125.48430649009991 363.75 C 124.65067505965486 362.5125 123.68371528980569 359.7 123.33550700154618 357.5 C 122.86288220561175 354.51392934598715 123.24127801507501 352.3593294857645 124.82829665581878 349 C 125.99753925392821 346.525 128.0894990237774 343.2625 129.47709614437252 341.75 C 130.86469326496763 340.2375 132.21494233834395 339.1125 132.4776496407643 339.25 Z " class="even" fill="#ffffff"></path><path d="M 397 339.2229045692296 C 398.1812404817759 339.4591132942783 398.56223179873774 341.5392364846553 398.79284677874614 349.0114272867585 C 398.9539125070565 354.23014227904133 398.3912983995224 367.05 397.5425932064481 377.5 C 396.6938880133738 387.95 395.62277898059625 397.85 395.16235091138685 399.5 C 394.4378894553218 402.09619576312923 394.24462649317576 402.23079717541947 393.7265341628278 400.5 C 393.3972630203298 399.4 392.83342074816983 389.95 392.47355133580567 379.5 C 392.0329417120209 366.70544061162934 392.19770133560354 358.37708610654784 392.9780171818254 354 C 393.6153428095005 350.425 394.4435130640023 345.57016477711204 394.8183955251627 343.21147728247115 C 395.3047743112033 340.1512766085289 395.9296311776195 339.00886648065494 397 339.2229045692296 Z " class="even" fill="#ffffff"></path><path d="M 152 340 C 151.45 340 150.80136146188545 340.3375 150.55858102641213 340.75 C 150.3158005909388 341.1625 149.66539121030303 344.65 149.11322684722154 348.5 C 148.56106248414005 352.35 148.30491199405535 355.725 148.54400353592217 356 C 148.78309507778903 356.275 149.19868796767568 355.825 149.46754329122587 355 C 149.73639861477602 354.175 150.64344933722444 350.8 151.48321156333347 347.5 C 152.3229737894425 344.2 153.0077902801916 341.1625 153.0050259872204 340.75 C 153.00226169424917 340.3375 152.55 340 152 340 Z " class="odd" fill="#000000"></path><path d="M 309 340 C 309.55 340 310.225 340.45 310.5 341 C 310.775 341.55 310.55 342 310 342 C 309.45 342 308.775 341.55 308.5 341 C 308.225 340.45 308.45 340 309 340 Z " class="even" fill="#ffffff"></path><path d="M 140.5 342 C 139.42848943674727 342 139.11997163572877 342.78556396737 139.41998107341746 344.75 C 139.65097066379707 346.2625 140.09500638878686 349.3 140.40672712895034 351.5 C 140.71844786911382 353.7 141.54195638607595 356.01146071304294 142.23674605553288 356.63657936231766 C 143.24378580372294 357.5426367705209 143.35671745039264 356.93417432146407 142.7935510654956 353.63657936231766 C 142.40500415151817 351.36146071304296 142.06750415151816 347.8125 142.0435510654956 345.75 C 142.01280621243868 343.1026893624425 141.55892425502302 342 140.5 342 Z " class="odd" fill="#000000"></path><path d="M 295.25 341.97222222222223 C 295.6625 341.9875 296 342.675 296 343.5 C 296 344.325 295.325 345 294.5 345 C 293.675 345 292.9875 344.6625 292.97222222222223 344.25 C 292.95694444444445 343.8375 293.2944444444445 343.15 293.72222222222223 342.72222222222223 C 294.15 342.2944444444445 294.8375 341.95694444444445 295.25 341.97222222222223 Z " class="even" fill="#ffffff"></path><path d="M 318.70206208241206 343.1382463741116 C 319.9131962277387 343.8872108683502 320.6899819420244 344.725 320.42825255860254 345 C 320.16652317518066 345.275 319.17559523809524 344.6622108683502 318.2261904761905 343.6382463741116 L 316.5 341.7764927482232 L 318.70206208241206 343.1382463741116 Z " class="even" fill="#ffffff"></path><path d="M 289.75 347.62756704150684 C 290.4375 347.83240516867806 291.0200364079815 348.3375 291.04452535106986 348.75 C 291.0690142941583 349.1625 290.40272863614564 350.175 289.56389055548607 351 C 288.2029533115532 352.3384862372507 288.0635642046028 352.21762732354404 288.2693652044162 349.87756704150684 C 288.4063609729077 348.3198566467815 289.0075070462333 347.4063439635615 289.75 347.62756704150684 Z " class="even" fill="#ffffff"></path><path d="M 309.25 350.0391418106352 C 310.2125 350.0176138147858 312.35 350.675 314 351.5 C 315.65 352.325 317.6784794126945 354.0125 318.50773202821006 355.25 C 319.3369846437256 356.4875 320.02715246842996 358.625 320.04143830533087 360 C 320.05572414223184 361.375 318.9272447295373 363.7375 317.5337062771208 365.25 C 315.49086763195487 367.4672286996858 314.12819241766766 368 310.5 368 C 307.1666666666667 368 305.22222222222223 367.35185185185185 303 365.5 C 301.3225806451613 364.10215053763443 299.7795698924731 361.6774193548387 299.5 360 C 299.225 358.35 299.45 356.1 300 355 C 300.55 353.9 302.4625 352.34261381478586 304.25 351.5391418106352 C 306.0375 350.73566980648457 308.2875 350.0606698064846 309.25 350.0391418106352 Z " class="even" fill="#ffffff"></path><path d="M 330 354 C 330.5331559480312 354.825 330.9762651994985 355.8375 330.98468722548296 356.25 C 330.99310925146733 356.6625 330.55 356.775 330 356.5 C 329.45 356.225 329.00689074853267 355.2125 329.01531277451704 354.25 C 329.0283990453036 352.75445300746105 329.17157426012227 352.7181025778238 330 354 Z " class="even" fill="#ffffff"></path><path d="M 286.75 354.64500854450114 C 287.4375 354.84025384502553 288 356.125 288 357.5 C 288 358.875 287.6625 359.83056617758155 287.25 359.62348039462563 C 286.8375 359.4163946116698 286.275 358.1316484566953 286 356.76848893912677 C 285.6612894855281 355.08951998820703 285.9032237138202 354.40452986745083 286.75 354.64500854450114 Z " class="even" fill="#ffffff"></path><path d="M 147.5496031746032 357 C 147.21676587301587 356.725 146.99247076023394 357.4 147.05116959064327 358.5 C 147.12550503410998 359.8930258446911 147.30916288864293 360.04476938351837 147.656328320802 359 C 147.93046679197994 358.175 147.88244047619048 357.275 147.5496031746032 357 Z " class="odd" fill="#000000"></path><path d="M 304.75 357.01531277451704 C 302.93056171750004 357.02769528481383 302.78704114500005 357.2161257839268 304 358 C 304.825 358.5331559480312 305.8375 358.9762651994985 306.25 358.98468722548296 C 306.6625 358.99310925146733 307 358.55 307 358 C 307 357.45 305.9875 357.00689074853267 304.75 357.01531277451704 Z " class="odd" fill="#000000"></path><path d="M 283.5 361.5 C 284.325 362.325 285.7875 362.7775044224517 286.75 362.5055653832261 C 287.8054336960928 362.2073694089073 288.99611878850516 362.80271195511347 289.75 364.0055653832261 C 290.8172659912569 365.70843917384065 290.7071407421091 366.1827340087431 288.9966834040283 367.25 C 287.89485927624384 367.9375 286.99485927624386 369.0625 286.9966834040283 369.75 C 286.9988934906808 370.5829649855579 288.000884034661 370.8331859942232 290 370.5 C 292.3076923076923 370.11538461538464 293.2307692307692 370.46153846153845 294 372 C 294.70988470629317 373.4197694125863 294.6612644117134 374.0725288234267 293.83241043945475 374.25 C 293.041268408597 374.4193964338137 292.96066484241067 375.095809644139 293.58241043945475 376.3479630378935 L 294.5 378.19592607578704 L 296.332634179097 376.3479630378935 C 297.89969886964127 374.76779081413804 298.5155720969457 374.6811391845013 300.582634179097 375.75 C 301.91218538059366 376.4375 303 377.45 303 378 C 303 378.5708897951602 300.7598443231106 378.89272244879004 297.77953296933174 378.75 C 293.3427683848713 378.5375302842449 292.3692056265045 378.1246971575513 291.2943518818753 376 C 290.59875915064174 374.625 288.89796931444243 372.9375 287.51481891254355 372.25 C 285.75796271021625 371.37674815591873 284.99041451063664 370.1711540569788 284.96819662812953 368.25 C 284.95070477360076 366.7375 284.2680623172482 364.6 283.45121339179053 363.5 C 282.63436446633284 362.4 281.9736759836745 361.1625 281.983016763661 360.75 C 281.9923575436475 360.3375 282.675 360.675 283.5 361.5 Z " class="even" fill="#ffffff"></path><path d="M 332.76064228488724 360.38690476190476 C 332.9039955415752 360.44910714285714 332.7914955415752 361.2875 332.51064228488724 362.25 C 332.22978902819926 363.2125 331.55 364 331 364 C 330.45 364 330 363.325 330 362.5 C 330 361.675 330.5625 360.83660714285713 331.25 360.63690476190476 C 331.9375 360.4372023809524 332.61728902819925 360.3247023809524 332.76064228488724 360.38690476190476 Z " class="even" fill="#ffffff"></path><path d="M 330.25 367.97222222222223 C 330.6625 367.9875 330.775 368.9 330.5 370 C 330.225 371.1 329.55 372 329 372 C 328.45 372 327.9875 371.4375 327.97222222222223 370.75 C 327.95694444444445 370.0625 328.2944444444445 369.15 328.72222222222223 368.72222222222223 C 329.15 368.2944444444445 329.8375 367.95694444444445 330.25 367.97222222222223 Z " class="even" fill="#ffffff"></path><path d="M 309 371 C 309.55 371 310 371.225 310 371.5 C 310 371.775 309.55 372.225 309 372.5 C 308.45 372.775 308 372.55 308 372 C 308 371.45 308.45 371 309 371 Z " class="even" fill="#ffffff"></path><path d="M 326 374.0040255940927 C 327.2894784269161 374.05524466550753 327.2771599811014 374.2345778573938 325.91222909628044 375.28180337187047 C 325.03895509923467 375.9518115173417 324.06198141502415 377.175 323.7411764647015 378 C 323.3122701931967 379.10299941953997 323.1296481068483 378.97066589272 323.05116959064327 377.5 C 322.9924707602339 376.4 323.2944444444445 375.15 323.72222222222223 374.72222222222223 C 324.15 374.2944444444445 325.175 373.97125596178614 326 374.0040255940927 Z " class="even" fill="#ffffff"></path><path d="M 145.95 375 C 145.12297297297297 374.6936936936937 144.7743243243243 375.04234234234235 145.05 375.9 C 145.29749999999999 376.67 146.1525 377.57 146.95 377.9 C 147.94024390243902 378.309756097561 148.22560975609755 378.0243902439024 147.85000000000002 377 C 147.5475 376.175 146.6925 375.275 145.95 375 Z " class="odd" fill="#000000"></path><path d="M 151 375.1578947368421 C 149.625 375.1578947368421 149.0625 375.34736842105264 149.75 375.57894736842104 L 151 376 L 152.25 375.57894736842104 C 152.9375 375.34736842105264 152.375 375.1578947368421 151 375.1578947368421 Z " class="odd" fill="#000000"></path><path d="M 45 376 C 44.45 376 43.775 376.675 43.5 377.5 C 43.225 378.325 42.97996359201855 380.0125 42.95547464893012 381.25 C 42.930985705841685 382.4875 43.60598570584168 384.0625 44.45547464893012 384.75 C 45.42583167013301 385.53531975902075 46.185872096391705 385.6282558072166 46.5 385 L 47 384 L 46.5 380 C 46.225 377.8 45.55 376 45 376 Z " class="odd" fill="#000000"></path><path d="M 319.25 377.6349454195844 C 319.6625 377.835725438813 320 378.675 320 379.5 C 320 380.325 319.775 381 319.5 381 C 319.225 381 318.325 380.325 317.5 379.5 C 316.3730580402929 378.3730580402929 316.31088170024407 377.9092089690868 317.25 377.6349454195844 L 318.5 377.26989083916885 L 319.25 377.6349454195844 Z " class="even" fill="#ffffff"></path><path d="M 133 378 C 132.45 378 132 378.675 132 379.5 C 132 380.325 132.225 381 132.5 381 C 132.775 381 133.225 380.325 133.5 379.5 C 133.775 378.675 133.55 378 133 378 Z " class="odd" fill="#000000"></path><path d="M 308 378 C 309.1 378 310.225 378.45 310.5 379 C 310.775 379.55 310.8875 380.1690975468391 310.75 380.37577232630906 C 310.6125 380.58244710577907 309.375 381.06192510301133 308 381.4412789868252 C 306.09193318957193 381.96770266327036 305.85515991374314 381.8823554743888 307 381.08081943503316 C 308.2930456373202 380.17552035327896 308.2585532435402 380.02851285204014 306.75 380.01531277451704 C 305.7875 380.00689074853267 305.225 379.55 305.5 379 C 305.775 378.45 306.9 378 308 378 Z " class="even" fill="#ffffff"></path><path d="M 300.75 379.95547464893014 C 301.4375 379.9799635920185 302.225 380.45 302.5 381 C 302.775 381.55 302.8875 382.23541836439045 302.75 382.5231519208677 C 302.6125 382.81088547734487 301.825 382.3408490693634 301 381.47862656979777 C 299.93678354759777 380.36743972474375 299.8639862896648 379.9239145917258 300.75 379.95547464893014 Z " class="even" fill="#ffffff"></path><path d="M 147 381 C 146.45 381 146 381.675 146 382.5 C 146 383.325 146.225 384 146.5 384 C 146.775 384 147.225 383.325 147.5 382.5 C 147.775 381.675 147.55 381 147 381 Z " class="odd" fill="#000000"></path><path d="M 140 382 C 139.45 382 138.775 382.45 138.5 383 C 138.225 383.55 138.675 384 139.5 384 C 140.325 384 141 383.55 141 383 C 141 382.45 140.55 382 140 382 Z " class="odd" fill="#000000"></path><path d="M 57 384.5 C 57.47268621112858 385.6 57.88416709442123 387.175 57.91440196287256 388 L 57.96937445096587 389.5 L 57 388 C 56.46684405196877 387.175 56.05536316867612 385.6 56.08559803712744 384.5 L 56.14057052522076 382.5 L 57 384.5 Z " class="even" fill="#ffffff"></path><path d="M 144.21168319336837 385.5 C 143.54501652670172 384.8333333333333 142.97445546224557 385 142.5 386 C 142.10857424364738 386.825 142.23831680663164 387.95 142.78831680663166 388.5 C 143.4549834732983 389.1666666666667 144.02554453775443 389 144.5 388 C 144.89142575635262 387.175 144.76168319336838 386.05 144.21168319336837 385.5 Z " class="odd" fill="#000000"></path><path d="M 49 389 C 47.41516711697484 386.97390700523846 47.04025660198085 386.8317349036669 47.02223584558881 388.25 C 47.01000613051497 389.2125 47.45 390 48 390 C 48.58566637924216 390 48.724106091522614 391.13941745708405 48.33412618562606 392.75 L 47.66825237125213 395.5 L 49.37865153669595 394 C 50.31937107769005 393.175 51.059008163643355 392.275 51.02228950548107 392 C 50.98557084731878 391.725 50.07554056985231 390.375 49 389 Z " class="odd" fill="#000000"></path><path d="M 41.54878660820945 393.5 C 40.2256031618122 391.7181505714518 40.0601377818671 391.69088175002037 40.03180337187046 393.25 C 40.01431151734171 394.2125 40.225 395.675 40.5 396.5 C 40.775 397.325 41.45 398 42 398 C 42.55 398 43.00764245635254 397.4375 43.01698323633899 396.75 C 43.02632401632543 396.0625 42.36563553366714 394.6 41.54878660820945 393.5 Z " class="odd" fill="#000000"></path><path d="M 57 395.5 C 57.55 395.775 58 396.45 58 397 C 58 397.55 57.55 398 57 398 C 56.45 398 56 397.325 56 396.5 C 56 395.675 56.45 395.225 57 395.5 Z " class="even" fill="#ffffff"></path><path d="M 433.1603896725011 395.5 L 432.21168319336834 394.5 L 431.71721859198476 395.5 C 431.4452630612237 396.05 430.704104554461 404.6 430.0701996880676 414.5 C 429.43629482167415 424.4 428.5026947774858 434.75 427.99553292320456 437.5 C 427.4883710689234 440.25 426.35449214253947 447.45 425.4758019756848 453.5 C 424.59711180883016 459.55 423.23059220513323 465.7375 422.43909174524725 467.25 C 421.6475912853613 468.7625 421 470.9 421 472 C 421 473.1 420.2125 474.2363129811642 419.25 474.5251399581427 C 418.2875 474.8139669351212 416.7125 476.16396693512115 415.75 477.5251399581427 C 414.27301229925473 479.61390443979366 414.23401054221836 480 415.5 480 C 416.325 480 418.35 479.325 420 478.5 C 422.22222222222223 477.3888888888889 422.8703703703704 476.48148148148147 422.5 475 C 422.225 473.9 422.45 473 423 473 C 423.55 473 425.12034841755144 469.2875 426.4896631501143 464.75 C 427.8589778826772 460.2125 429.65435385080656 451.55 430.4793875237351 445.5 C 431.3044211966637 439.45 432.2335498570906 431.8 432.54411788023936 428.5 C 432.85468590338803 425.2 433.3338565693763 416.65 433.60894158243536 409.5 C 433.90041142298116 401.92412613930924 433.71325741224945 396.08275952774545 433.1603896725011 395.5 Z " class="odd" fill="#000000"></path><path d="M 405 396 C 404.45 396 404.00689074853267 397.9125 404.01531277451704 400.25 C 404.02652696897326 403.3624553153788 404.2900859617645 404.09851364072193 405 403 C 405.5331559480312 402.175 405.9762651994985 400.2625 405.98468722548296 398.75 C 405.99310925146733 397.2375 405.55 396 405 396 Z " class="odd" fill="#000000"></path><path d="M 44.689325513685745 403.5 C 44.43779796668132 402.4 44.23200270095044 403.075 44.23200270095044 405 C 44.23200270095044 406.925 44.43779796668132 407.825 44.689325513685745 407 L 45.14664832642105 405.5 L 44.689325513685745 403.5 Z " class="odd" fill="#000000"></path><path d="M 386 414.5 C 386.55 414.775 387 415.45 387 416 C 387 416.55 386.55 416.775 386 416.5 C 385.45 416.225 385 415.55 385 415 C 385 414.45 385.45 414.225 386 414.5 Z " class="even" fill="#ffffff"></path><path d="M 417.75 414.9966834040283 C 417.6125 414.99485927624386 416.9375 415.89485927624384 416.25 416.9966834040283 C 415.5625 418.09850753181274 415.00059531915576 419.7875 415.00132293145725 420.75 C 415.00205054375874 421.7125 414.07993931974045 426.55 412.95218687808324 431.5 C 411.824434436426 436.45 410.47383911727024 442.1875 409.950863946626 444.25 C 409.42788877598167 446.3125 408.325 448.675 407.5 449.5 C 406.675 450.325 405.99732243938246 451.5625 405.9940498652944 452.25 C 405.9907772912063 452.9375 405.239516452735 455.525 404.3245813353582 458 C 403.4096462179814 460.475 402.07369897174914 463.175 401.3558096770643 464 C 400.6379203823795 464.825 400.0372546623944 465.95 400.02099696598634 466.5 C 400.0047392695783 467.05 398.6452906348844 469.525 397 472 C 395.3547093651156 474.475 394.00663592357193 477.2875 394.00428124101416 478.25 C 394.00115292801655 479.5287291646698 394.807892860566 480 397 480 C 398.7243980995844 480 400.00712362571926 479.46849920816015 400.0167535632793 478.75 C 400.0259680230829 478.0625 401.36339980268235 475.025 402.9888241846114 472 C 404.6142485665404 468.975 406.4067094630648 465.2625 406.97207062133214 463.75 C 407.53743177959944 462.2375 409.0125 460.7309677371272 410.25 460.40215052694924 C 411.6812023786445 460.0218644878818 412.05994085029323 459.56697692046214 411.290747480188 459.15215052694924 C 410.361954333249 458.6512518889234 410.4427541224683 457.22439666196317 411.63913073339404 453 C 412.495830408554 449.975 413.87758792221143 444.125 414.70970298596615 440 C 415.5418180497209 435.875 416.2895442786967 429.575 416.37131682813464 426 C 416.45308937757255 422.425 416.85299549783053 418.4875 417.2599970953745 417.25 C 417.6669986929185 416.0125 417.8875 414.9985075318127 417.75 414.9966834040283 Z " class="odd" fill="#000000"></path><path d="M 391.5 418.99414062752453 C 391.5 419.0092513059963 391.3875 420.36675130599633 391.25 422.0108072941912 C 391.1125 423.65486328238603 390.55 425 390 425 C 389.45 425 388.9925 424.2125 388.98333333333335 423.25 C 388.97416666666663 422.2875 389.53666666666663 420.93 390.23333333333335 420.23333333333335 C 390.93 419.53666666666663 391.5 418.9790299490527 391.5 418.99414062752453 Z " class="even" fill="#ffffff"></path><path d="M 76.5 425 C 76.775 425 78.125 425.675 79.5 426.5 C 81.1 427.46 82 428.9 82 430.5 C 82 431.875 81.55 433.225 81 433.5 C 80.45 433.775 80.19530764746872 434.3375 80.43401699437496 434.75 C 80.67272634128118 435.1625 80.49803787077492 436.175 80.04582039324994 437 C 79.59357598637452 437.8250491283845 78.72333168232615 438.16252456419227 78.111803398875 437.75 C 77.50031152949374 437.3375 77 436.1 77 435 C 77 433.9 77.45 433 78 433 C 78.55 433 79 432.55 79 432 C 79 431.45 78.02988216562296 430.2125 76.84418259027328 429.25 C 75.65291686201297 428.282981636084 74.98178974536953 426.9407274027971 75.34418259027328 426.25 C 75.70488216562298 425.5625 76.225 425 76.5 425 Z " class="even" fill="#ffffff"></path><path d="M 189.25 425.0108072941912 C 188.8375 425.0167513059963 188.6125 426.36675130599633 188.75 428.0108072941912 C 188.8875 429.65486328238603 189.225 431 189.5 431 C 189.775 431 190 429.65 190 428 C 190 426.35 189.6625 425.00486328238605 189.25 425.0108072941912 Z " class="odd" fill="#000000"></path><path d="M 211 425.2996641823594 C 207.975 425.2996641823594 206.625 425.48712979689225 208 425.7162544368769 L 210.5 426.13284469139444 L 213.5 425.7162544368769 C 215.15 425.48712979689225 214.025 425.2996641823594 211 425.2996641823594 Z " class="odd" fill="#000000"></path><path d="M 11.5 426 C 11.225 426 10.775 426.45 10.5 427 C 10.225 427.55 10.675 428 11.5 428 C 12.325 428 12.775 427.55 12.5 427 C 12.225 426.45 11.775 426 11.5 426 Z " class="odd" fill="#000000"></path><path d="M 153.5 425.9309213926753 C 152.95 425.9419060448236 153.4 426.80388719942755 154.5 427.846435069573 C 155.6 428.8889829397184 156.725 429.58545026942346 157 429.39414024669543 C 157.275 429.2028302239674 156.825 428.3408490693634 156 427.47862656979777 C 155.175 426.61640407023214 154.05 425.919936740527 153.5 425.9309213926753 Z " class="odd" fill="#000000"></path><path d="M 232.5 426.05116959064327 C 231.10697415530882 426.12550503410995 230.95523061648163 426.3091628886429 232 426.656328320802 C 232.825 426.93046679197994 233.725 426.8824404761905 234 426.5496031746032 C 234.275 426.2167658730159 233.6 425.9924707602339 232.5 426.05116959064327 Z " class="odd" fill="#000000"></path><path d="M 304.25 426.11600135047524 C 301.3625 426.05220060771387 299.00251609605016 426.3375 299.0055913245559 426.75 C 299.0086665530616 427.1625 300.6961665530616 427.361560431781 302.7555913245559 427.1923565150689 C 304.81501609605016 427.0231525983568 307.175 426.7378532060706 308 426.5583578655441 C 308.825 426.3788625250176 307.1375 426.17980209323656 304.25 426.11600135047524 Z " class="odd" fill="#000000"></path><path d="M 389 426 C 389.55 426 389.73852251223747 426.7875 389.4189389160832 427.75 C 389.09935531992903 428.7125 388.4072954730249 432.2 387.88102814518516 435.5 C 387.3547608173454 438.8 386.71623830510794 442.2875 386.4620892291019 443.25 C 386.2079401530958 444.2125 385.55 444.775 385 444.5 C 384.45 444.225 383.836281924225 445.0125 383.6361820538333 446.25 C 383.3954584395435 447.7387339611985 383.22628820869875 447.40039349950894 383.1361820538333 445.25 C 383.06128192422494 443.4625 383.45 442 384 442 C 384.55 442 385.2579732329149 440.9875 385.5732738509219 439.75 C 385.88857446892894 438.5125 386.3099311823188 436.375 386.5096221028993 435 C 386.7093130234798 433.625 387.12633979056494 431.0375 387.4363482519774 429.25 C 387.74635671338984 427.4625 388.45 426 389 426 Z " class="even" fill="#ffffff"></path><path d="M 23 428 C 22.45 428 22 428.45 22 429 C 22 429.55 22.45 430.225 23 430.5 C 23.55 430.775 24 430.325 24 429.5 C 24 428.675 23.55 428 23 428 Z " class="odd" fill="#000000"></path><path d="M 129 429 C 127.9 429 127 429.225 127 429.5 C 127 429.775 127.67500000000001 430.225 128.5 430.5 C 129.325 430.775 130.225 430.55 130.5 430 C 130.775 429.45 130.1 429 129 429 Z " class="odd" fill="#000000"></path><path d="M 315.6622807017544 430.5 C 315.3848684210526 429.95 315.1578947368421 430.625 315.1578947368421 432 C 315.1578947368421 433.375 315.3848684210526 433.825 315.6622807017544 433 L 316.1666666666667 431.5 L 315.6622807017544 430.5 Z " class="odd" fill="#000000"></path><path d="M 203.66228070175438 433.5 C 203.38486842105263 432.95 203.1578947368421 433.625 203.1578947368421 435 C 203.1578947368421 436.375 203.38486842105263 436.825 203.66228070175438 436 L 204.16666666666666 434.5 L 203.66228070175438 433.5 Z " class="odd" fill="#000000"></path><path d="M 11.25 434.01531277451704 C 9.10706304164065 434.0272452510435 8.831125295440355 434.2446151500131 10 435 C 10.825 435.5331559480312 12.0625 435.9762651994985 12.75 435.98468722548296 C 13.4375 435.99310925146733 14 435.55 14 435 C 14 434.45 12.7625 434.00689074853267 11.25 434.01531277451704 Z " class="odd" fill="#000000"></path><path d="M 143.5496031746032 434 C 143.21676587301587 433.725 142.99247076023394 434.4 143.05116959064327 435.5 C 143.12550503410998 436.8930258446911 143.30916288864293 437.04476938351837 143.656328320802 436 C 143.93046679197994 435.175 143.88244047619048 434.275 143.5496031746032 434 Z " class="odd" fill="#000000"></path><path d="M 215.6999544634437 436.5 C 215.46477976776626 435.4 215.2785066244724 436.75 215.28601414501293 439.5 C 215.29374769641106 442.3327949594043 215.47908289128114 443.19967697564255 215.7136045007901 441.5 C 215.941271675927 439.85 215.93512915912112 437.6 215.6999544634437 436.5 Z " class="odd" fill="#000000"></path><path d="M 294.57894736842104 435.75 L 294.1578947368421 434.5 L 294.07894736842104 435.75 C 294.03552631578947 436.4375 293.7410226010555 437.7875 293.4244946690121 438.75 L 292.8489893380243 440.5 L 293.9244946690121 438.75 C 294.51602260105545 437.7875 294.81052631578945 436.4375 294.57894736842104 435.75 Z " class="odd" fill="#000000"></path><path d="M 38.680120461437696 438 C 38.433655693169705 437.175 38.24108401746156 438.3 38.25218340430848 440.5 C 38.264217787084625 442.88532474564954 38.44510895180805 443.49082796603096 38.700301164795746 442 C 38.93566654621681 440.625 38.92658522970569 438.825 38.680120461437696 438 Z " class="odd" fill="#000000"></path><path d="M 177.7057330069091 438.5 C 177.46738011232569 437.4 177.27236410766653 438.525 177.27236410766653 441 C 177.27236410766653 443.475 177.46738011232569 444.375 177.7057330069091 443 L 178.1391019061517 440.5 L 177.7057330069091 438.5 Z " class="odd" fill="#000000"></path><path d="M 318 439 C 317.37262037110014 437.041005730949 317.20339265614865 436.9328045847592 317.2179948137766 438.5 C 317.22824393346804 439.6 317.58014626726856 441.85 318 443.5 C 318.68568864975015 446.1947152874581 318.765266725911 446.24559607288177 318.7820051862234 444 C 318.79225430591487 442.625 318.44035197211434 440.375 318 439 Z " class="odd" fill="#000000"></path><path d="M 223.25 437.97222222222223 C 221.7375 437.95694444444445 220.15 438.2944444444445 219.72222222222223 438.72222222222223 C 219.29444444444445 439.15 218.95694444444445 445.2375 218.97222222222223 452.25 L 219 465 L 223.5 465 C 227.15655852365333 465 228.21725458938639 464.57827926182665 229.15911498267002 462.75 C 229.79662822313853 461.5125 230.5360016388884 457.575 230.80216701766972 454 C 231.06833239645107 450.425 230.99673065424955 446.2625 230.6430520349997 444.75 C 230.28937341574988 443.2375 229.1 441.1 228 440 C 226.9 438.9 224.7625 437.9875 223.25 437.97222222222223 Z " class="odd" fill="#000000"></path><path d="M 306 438 C 305.45 438 305.225 438.45 305.5 439 C 305.775 439.55 306.225 440 306.5 440 C 306.775 440 307 439.55 307 439 C 307 438.45 306.55 438 306 438 Z " class="odd" fill="#000000"></path><path d="M 308.68932551368573 441.5 C 308.43779796668133 440.4 308.23200270095043 441.075 308.23200270095043 443 C 308.23200270095043 444.925 308.43779796668133 445.825 308.68932551368573 445 L 309.14664832642103 443.5 L 308.68932551368573 441.5 Z " class="odd" fill="#000000"></path><path d="M 303.5496031746032 441 C 303.2167658730159 440.725 302.9924707602339 441.4 303.05116959064327 442.5 C 303.12550503410995 443.8930258446912 303.3091628886429 444.04476938351837 303.656328320802 443 C 303.93046679197994 442.175 303.8824404761905 441.275 303.5496031746032 441 Z " class="odd" fill="#000000"></path><path d="M 291.7582173822731 442.24018377064317 C 291.6161978220229 442.0972848444969 291.1625 442.6597848444969 290.75 443.49018377064317 C 290.3375 444.3205826967894 290.0285238351886 445.5625 290.0633863004191 446.25 C 290.09824876564954 446.9375 290.55194658767243 446.375 291.07160368269217 445 C 291.5912607777119 443.625 291.9002369425233 442.3830826967894 291.7582173822731 442.24018377064317 Z " class="odd" fill="#000000"></path><path d="M 392.35407694697915 443.25 C 393.09881926781765 443.9375 393.54881926781763 445.2875 393.35407694697915 446.25 C 393.1593346261406 447.2125 392.55 448 392 448 C 391.45 448 390.8482402855007 447.4375 390.6627561900015 446.75 L 390.32551238000303 445.5 L 390.6627561900015 443.75 C 390.9359045808091 442.3325990878367 391.2573512899577 442.2375707770262 392.35407694697915 443.25 Z " class="even" fill="#ffffff"></path><path d="M 168.19075434769198 443.73333333333335 C 167.1311359795984 442.7351534641253 167.03580349414224 442.83553531018146 167.69075434769198 444.25981622935683 C 168.13583945646138 445.22771515550306 168.725 445.78271515550307 169 445.4931495626902 C 169.275 445.20358396987723 168.9108394564614 444.41166666666663 168.19075434769198 443.73333333333335 Z " class="odd" fill="#000000"></path><path d="M 306.65400327188763 450.57774092737895 L 305.5 445.65548185475797 L 303.25368831415835 451.07774092737895 C 302.0182168869455 454.05998341732055 301.0057168869455 457.0625 301.00368831415835 457.75 C 301.00143812592296 458.51260729793495 302.3646995657822 459 304.5 459 C 307.2032368488047 459 307.9781466698299 458.6016184244024 307.90400327188763 457.25 C 307.85120507142585 456.2875 307.28870507142585 453.2849834173205 306.65400327188763 450.57774092737895 Z " class="odd" fill="#000000"></path><path d="M 309.68932551368573 449.5 C 309.43779796668133 448.4 309.23200270095043 449.075 309.23200270095043 451 C 309.23200270095043 452.925 309.43779796668133 453.825 309.68932551368573 453 L 310.14664832642103 451.5 L 309.68932551368573 449.5 Z " class="odd" fill="#000000"></path><path d="M 42 449.5 C 41.45 449.225 41 449.675 41 450.5 C 41 451.325 41.45 452 42 452 C 42.55 452 43 451.55 43 451 C 43 450.45 42.55 449.775 42 449.5 Z " class="odd" fill="#000000"></path><path d="M 158.5 449 C 157.675 449 157 449.225 157 449.5 C 157 449.775 157.675 450.225 158.5 450.5 C 159.325 450.775 160 450.55 160 450 C 160 449.45 159.325 449 158.5 449 Z " class="odd" fill="#000000"></path><path d="M 320.6622807017544 449.5 C 320.3848684210526 448.95 320.1578947368421 449.625 320.1578947368421 451 C 320.1578947368421 452.375 320.3848684210526 452.825 320.6622807017544 452 L 321.1666666666667 450.5 L 320.6622807017544 449.5 Z " class="odd" fill="#000000"></path><path d="M 382.5496031746032 449 C 382.8824404761905 449.275 382.93046679197994 450.175 382.656328320802 451 C 382.3091628886429 452.04476938351837 382.12550503410995 451.8930258446912 382.05116959064327 450.5 C 381.9924707602339 449.4 382.2167658730159 448.725 382.5496031746032 449 Z " class="even" fill="#ffffff"></path><path d="M 390.8328357507522 450.29793791758794 C 391.015895413666 450.40907206291456 390.8871691640797 451.85 390.54677741833825 453.5 C 390.12523578998014 455.5433623772979 389.59607366770933 456.18112079243264 388.88733362359346 455.5 C 388.16873808059916 454.8094077726433 388.25724675207744 453.8186648758586 389.17339195600755 452.29793791758794 C 389.90302638020336 451.0868037722613 390.6497760878385 450.1868037722613 390.8328357507522 450.29793791758794 Z " class="even" fill="#ffffff"></path><path d="M 177.5 454 C 177.225 454 176.775 454.45 176.5 455 C 176.225 455.55 176.45 456 177 456 C 177.55 456 178 455.55 178 455 C 178 454.45 177.775 454 177.5 454 Z " class="odd" fill="#000000"></path><path d="M 286 454 C 285.45 454 284.78114460748156 455.0125 284.51365468329243 456.25 C 284.2461647591033 457.4875 284.02393709281193 458.95 284.01981542486726 459.5 C 284.01569375692264 460.05 284.69850994931437 459.15 285.53718474129346 457.5 C 286.3758595332725 455.85 287.0480871995638 454.3875 287.03102399971857 454.25 C 287.01396079987336 454.1125 286.55 454 286 454 Z " class="odd" fill="#000000"></path><path d="M 160.9442172758665 457 L 158.88913713146542 454.5 L 159.48710782504318 461.5 C 159.81599170651094 465.35 160.40343585193122 471.0934982947051 160.79253925931047 474.26332954378915 L 161.5 480.02665908757825 L 168.75 480.01332954378915 L 176 480 L 174.86142635715822 477.75 C 174.23521085359525 476.5125 171.64771085359524 472.35 169.11142635715822 468.5 C 166.5751418607212 464.65 164.16234191956022 461.05 163.74964871013378 460.5 C 163.33695550070738 459.95 162.07451135528711 458.375 160.9442172758665 457 Z " class="odd" fill="#000000"></path><path d="M 297.5496031746032 455 C 297.2167658730159 454.725 296.9924707602339 455.4 297.05116959064327 456.5 C 297.12550503410995 457.8930258446912 297.3091628886429 458.04476938351837 297.656328320802 457 C 297.93046679197994 456.175 297.8824404761905 455.275 297.5496031746032 455 Z " class="odd" fill="#000000"></path><path d="M 321.64177506673855 455.5 C 321.37564088529547 454.95 321.1745690287665 455.85 321.1949487188963 457.5 C 321.2184413179405 459.4020303143076 321.3955366291836 459.7680202095384 321.6788290487927 458.5 C 321.9245835401059 457.4 321.90790924818157 456.05 321.64177506673855 455.5 Z " class="odd" fill="#000000"></path><path d="M 311.5 457 C 311.225 457 310.8875 458.11607548236117 310.75 459.48016773858046 C 310.6125 460.8442599947997 310.8375 461.9692599947997 311.25 461.98016773858046 C 311.6625 461.99107548236117 312 460.875 312 459.5 C 312 458.125 311.775 457 311.5 457 Z " class="odd" fill="#000000"></path><path d="M 156.72004342079686 460.5 C 156.50006031921185 458.85 156.3237038636653 460.65 156.3281401862489 464.5 C 156.33257650883255 468.35 156.51256268285664 469.7 156.728109461858 467.5 C 156.94365624085935 465.3 156.94002652238183 462.15 156.72004342079686 460.5 Z " class="odd" fill="#000000"></path><path d="M 246.5496031746032 459 C 246.21676587301587 458.725 245.99247076023394 459.4 246.05116959064327 460.5 C 246.12550503410998 461.8930258446911 246.30916288864293 462.04476938351837 246.656328320802 461 C 246.93046679197994 460.175 246.88244047619048 459.275 246.5496031746032 459 Z " class="odd" fill="#000000"></path><path d="M 297.08737864547055 459.661514721035 C 295.97021205930685 458.7429349250289 295.77722599760415 458.81373032209063 296.16467824907585 460 C 296.4781724302609 460.9598308951058 298.067213581803 461.54956707471433 300.5772996036053 461.6376432146857 C 303.540440830631 461.7416165602999 303.7661490256169 461.6588173097057 301.5 461.2991579357207 C 299.85 461.03728726421286 297.8643203904617 460.3003478176043 297.08737864547055 459.661514721035 Z " class="odd" fill="#000000"></path><path d="M 307.5 461.05116959064327 C 306.1069741553088 461.12550503410995 305.95523061648163 461.3091628886429 307 461.656328320802 C 307.825 461.93046679197994 308.725 461.8824404761905 309 461.5496031746032 C 309.275 461.2167658730159 308.6 460.9924707602339 307.5 461.05116959064327 Z " class="odd" fill="#000000"></path><path d="M 215.61948009057528 464.75 L 215.23896018115053 461.5 L 215.36948009057528 465 L 215.5 468.5 L 218.5 468.593228506732 L 221.5 468.6864570134639 L 218.75 468.343228506732 C 216.48301761350356 468.06028560516654 215.93316442962148 467.42916100222305 215.61948009057528 464.75 Z " class="odd" fill="#000000"></path><path d="M 323.5496031746032 462 C 323.2167658730159 461.725 322.9924707602339 462.4 323.05116959064327 463.5 C 323.12550503410995 464.8930258446912 323.3091628886429 465.04476938351837 323.656328320802 464 C 323.93046679197994 463.175 323.8824404761905 462.275 323.5496031746032 462 Z " class="odd" fill="#000000"></path><path d="M 91 467 C 91.55 467 92.225 468.35 92.5 470 C 92.775 471.65 92.47173152765889 474.0125 91.82607006146418 475.25 L 90.65214012292837 477.5 L 89.81292011863312 474.5 C 89.35134911627074 472.85 89.20461758861185 470.4875 89.48685005716894 469.25 C 89.76908252572602 468.0125 90.45 467 91 467 Z " class="even" fill="#ffffff"></path><path d="M 293.25 468.95547464893014 C 292.5625 468.9799635920185 291.775 469.45 291.5 470 C 291.225 470.55 291.1125 471.23541836439045 291.25 471.5231519208677 C 291.3875 471.81088547734487 292.175 471.3408490693634 293 470.47862656979777 C 294.06321645240223 469.36743972474375 294.1360137103352 468.9239145917258 293.25 468.95547464893014 Z " class="odd" fill="#000000"></path><path d="M 307.75 470.11600135047524 C 304.8625 470.17980209323656 303.175 470.3788625250176 304 470.5583578655441 C 304.825 470.7378532060706 307.18498390394984 471.0231525983568 309.2444086754441 471.1923565150689 C 311.3038334469384 471.361560431781 312.9913334469384 471.1625 312.9944086754441 470.75 C 312.99748390394984 470.3375 310.6375 470.05220060771387 307.75 470.11600135047524 Z " class="odd" fill="#000000"></path><path d="M 324.6622807017544 470.5 C 324.3848684210526 469.95 324.1578947368421 470.625 324.1578947368421 472 C 324.1578947368421 473.375 324.3848684210526 473.825 324.6622807017544 473 L 325.1666666666667 471.5 L 324.6622807017544 470.5 Z " class="odd" fill="#000000"></path><path d="M 302.7096901714657 473.2262096985737 C 297.84679470505216 472.77289244565463 294.55248851277145 472.87577637174303 293.943023504799 473.5 C 293.4060272438262 474.05 292.9816666666666 475.175 293 476 C 293.0183333333334 476.825 292.46333333333337 478.07 291.76666666666665 478.76666666666665 C 290.7444444444444 479.7888888888889 292.5745614035087 480.03011695906434 301.25 480.01666666666665 C 310.82097740975246 480.0018279420004 311.9983205481791 479.8080660899597 311.98468722548296 478.25 C 311.9762651994985 477.2875 311.63876519949855 475.92679436435816 311.23468722548296 475.2262096985737 C 310.80411675516353 474.4796927180819 307.2752757029153 473.65181183322335 302.7096901714657 473.2262096985737 Z " class="odd" fill="#000000"></path><path d="M 479.25 471.99226797178994 C 478.8375 471.9880153562744 477.6 472.58457648934206 476.5 473.31795937860693 C 475.4 474.05134226787186 471.8 475.46266806413286 468.5 476.45423892585364 C 465.2 477.44580978757443 462.05 478.65674865450677 461.5 479.1452141857033 C 460.89989897710103 479.67817539465227 462.39952014122997 480.02666835038167 465.25 480.01666666666665 C 468.5330793953698 480.0051470898408 471.53967748493085 479.1507301762667 474.98559228791044 477.25 C 477.7276680462612 475.7375 479.9776680462612 473.9375 479.98559228791044 473.25 C 479.9935165295597 472.5625 479.6625 471.9965205873055 479.25 471.99226797178994 Z " class="odd" fill="#000000"></path><path d="M 314.5 474 C 314.225 474 314 475.35 314 477 C 314 478.65 314.3375 479.99513671761395 314.75 479.9891927058088 C 315.1625 479.9832486940037 315.3875 478.63324869400367 315.25 476.9891927058088 C 315.1125 475.34513671761397 314.775 474 314.5 474 Z " class="odd" fill="#000000"></path><path d="M 279.20547464893014 475.67753928435366 C 278.1901603261357 474.7539787684709 277.92055279388 474.8774505451579 277.95547464893014 476.25 C 277.99351436573426 477.74509218473713 278.91038505451024 477.97374475158216 284.25 477.81975176130317 L 290.5 477.63950352260633 L 285.5 477.2472910456568 C 282.75 477.0315741833346 279.9174635920185 476.3251858907482 279.20547464893014 475.67753928435366 Z " class="odd" fill="#000000"></path><path d="M 326.64177506673855 475.5 C 326.37564088529547 474.95 326.1745690287665 475.85 326.1949487188963 477.5 C 326.2184413179405 479.4020303143076 326.3955366291836 479.7680202095384 326.6788290487927 478.5 C 326.9245835401059 477.4 326.90790924818157 476.05 326.64177506673855 475.5 Z " class="odd" fill="#000000"></path><path d="M 219 477.23200270095043 C 217.075 477.23200270095043 216.4 477.43779796668133 217.5 477.68932551368573 L 219.5 478.14664832642103 L 221 477.68932551368573 C 221.825 477.43779796668133 220.925 477.23200270095043 219 477.23200270095043 Z " class="odd" fill="#000000"></path><path d="M 151.74932532663155 478.70208040656087 C 148.58645425627893 478.5909361829524 145.99895425627892 478.8375 145.99932532663155 479.25 C 145.9996963969842 479.6625 148.8125 480.0125 152.25 480.02777777777777 C 155.6875 480.04305555555555 158.275 479.79649173850794 158 479.47985818433864 C 157.725 479.16322463016934 154.9121963969842 478.8132246301693 151.74932532663155 478.70208040656087 Z " class="odd" fill="#000000"></path></g></svg>